<svg width="62" height="62" viewBox="0 0 62 62" fill="none" xmlns="http://www.w3.org/2000/svg">
<path d="M22.6087 40.3863L38.3431 27.2649L37.2015 39.8716C37.1102 40.8791 37.8621 41.7806 38.8696 41.8719C39.8771 41.9631 40.7645 41.223 40.8557 40.2155L42.3973 23.1914C42.4886 22.1839 41.7485 21.2964 40.741 21.2052L23.7192 19.6378C23.2361 19.5935 22.7551 19.7432 22.3825 20.0539C22.0099 20.3647 21.7762 20.8109 21.733 21.2941C21.6418 22.3016 22.3819 23.189 23.3894 23.2803L35.9937 24.4477L20.2593 37.5691C19.4845 38.2152 19.3792 39.3777 20.0253 40.1524C20.6714 40.9272 21.8339 41.0324 22.6087 40.3863Z" fill="#EDE6DF"/>
</svg>
