<svg width="182" height="19" viewBox="0 0 182 19" fill="none" xmlns="http://www.w3.org/2000/svg">
<path d="M0.95 18.5V0.874999H8.675C10.5917 0.874999 12.0667 1.28333 13.1 2.1C14.1333 2.9 14.65 4.01667 14.65 5.45C14.65 6.51667 14.3333 7.41667 13.7 8.15C13.0667 8.88333 12.1917 9.375 11.075 9.625V9.25C12.3583 9.43333 13.35 9.9 14.05 10.65C14.7667 11.3833 15.125 12.3583 15.125 13.575C15.125 15.1417 14.5833 16.3583 13.5 17.225C12.4167 18.075 10.9083 18.5 8.975 18.5H0.95ZM4.05 16.05H8.6C9.68333 16.05 10.525 15.85 11.125 15.45C11.725 15.0333 12.025 14.3583 12.025 13.425C12.025 12.475 11.725 11.8 11.125 11.4C10.525 10.9833 9.68333 10.775 8.6 10.775H4.05V16.05ZM4.05 8.35H8.125C9.275 8.35 10.125 8.14167 10.675 7.725C11.2417 7.29167 11.525 6.65833 11.525 5.825C11.525 4.99167 11.2417 4.36667 10.675 3.95C10.125 3.51667 9.275 3.3 8.125 3.3H4.05V8.35ZM20.7107 18.5V0.874999H23.9357V18.5H20.7107ZM30.3152 18.5V0.874999H32.7402L42.9652 14.1H42.3152V0.874999H45.3152V18.5H42.8902L32.6902 5.275H33.3152V18.5H30.3152ZM49.7373 18.5L57.7123 0.874999H60.4123L68.4873 18.5H65.2123L63.0623 13.55L64.3623 14.425H53.7873L55.1373 13.55L52.9873 18.5H49.7373ZM59.0373 4.325L55.5123 12.675L54.8623 11.9H63.2623L62.7373 12.675L59.1373 4.325H59.0373ZM72.9373 18.5V0.874999H80.6373C82.5706 0.874999 84.0623 1.33333 85.1123 2.25C86.179 3.16667 86.7123 4.44167 86.7123 6.075C86.7123 7.15833 86.4706 8.08333 85.9873 8.85C85.5206 9.61667 84.8456 10.2083 83.9623 10.625C83.079 11.025 82.0373 11.225 80.8373 11.225L81.1873 10.75H82.0373C82.7373 10.75 83.3623 10.9333 83.9123 11.3C84.4623 11.6667 84.9123 12.225 85.2623 12.975L87.8373 18.5H84.2873L81.6873 12.775C81.454 12.1917 81.0956 11.8083 80.6123 11.625C80.1456 11.4417 79.579 11.35 78.9123 11.35H76.1623V18.5H72.9373ZM76.1623 8.975H80.1123C81.2456 8.975 82.104 8.74167 82.6873 8.275C83.2873 7.79167 83.5873 7.09167 83.5873 6.175C83.5873 5.25833 83.2873 4.56667 82.6873 4.1C82.104 3.63333 81.2456 3.4 80.1123 3.4H76.1623V8.975ZM97.0957 18.5V10.175L97.7707 12.1L90.1957 0.874999H93.9207L99.1207 8.875H98.4207L103.621 0.874999H107.221L99.6707 12.1L100.321 10.175V18.5H97.0957Z" fill="#D6C4B0"/>
<path d="M111.775 18.5V0.874999H119.5C121.417 0.874999 122.892 1.28333 123.925 2.1C124.959 2.9 125.475 4.01667 125.475 5.45C125.475 6.51667 125.159 7.41667 124.525 8.15C123.892 8.88333 123.017 9.375 121.9 9.625V9.25C123.184 9.43333 124.175 9.9 124.875 10.65C125.592 11.3833 125.95 12.3583 125.95 13.575C125.95 15.1417 125.409 16.3583 124.325 17.225C123.242 18.075 121.734 18.5 119.8 18.5H111.775ZM114.875 16.05H119.425C120.509 16.05 121.35 15.85 121.95 15.45C122.55 15.0333 122.85 14.3583 122.85 13.425C122.85 12.475 122.55 11.8 121.95 11.4C121.35 10.9833 120.509 10.775 119.425 10.775H114.875V16.05ZM114.875 8.35H118.95C120.1 8.35 120.95 8.14167 121.5 7.725C122.067 7.29167 122.35 6.65833 122.35 5.825C122.35 4.99167 122.067 4.36667 121.5 3.95C120.95 3.51667 120.1 3.3 118.95 3.3H114.875V8.35ZM131.536 18.5V0.874999H143.411V3.4H134.636V8.275H142.836V10.825H134.636V15.95H143.411V18.5H131.536ZM146.637 18.5L154.612 0.874999H157.312L165.387 18.5H162.112L159.962 13.55L161.262 14.425H150.687L152.037 13.55L149.887 18.5H146.637ZM155.937 4.325L152.412 12.675L151.762 11.9H160.162L159.637 12.675L156.037 4.325H155.937ZM172.034 18.5V3.525H166.209V0.874999H181.084V3.525H175.259V18.5H172.034Z" fill="#EDE6DF"/>
</svg>
