<svg width="69" height="40" viewBox="0 0 69 40" fill="none" xmlns="http://www.w3.org/2000/svg">
<rect width="69" height="40" rx="5" fill="#C13584"/>
<path d="M36.0286 9.99976C37.1536 10.0028 37.7246 10.0088 38.2176 10.0228L38.4116 10.0298C38.6356 10.0378 38.8566 10.0478 39.1236 10.0598C40.1876 10.1098 40.9136 10.2778 41.5506 10.5248C42.2106 10.7788 42.7666 11.1228 43.3226 11.6778C43.8311 12.1777 44.2245 12.7823 44.4756 13.4498C44.7226 14.0868 44.8906 14.8128 44.9406 15.8778C44.9526 16.1438 44.9626 16.3648 44.9706 16.5898L44.9766 16.7838C44.9916 17.2758 44.9976 17.8468 44.9996 18.9718L45.0006 19.7178V21.0278C45.003 21.7572 44.9954 22.4866 44.9776 23.2158L44.9716 23.4098C44.9636 23.6348 44.9536 23.8558 44.9416 24.1218C44.8916 25.1868 44.7216 25.9118 44.4756 26.5498C44.2253 27.2175 43.8317 27.8224 43.3226 28.3218C42.8225 28.8301 42.2179 29.2235 41.5506 29.4748C40.9136 29.7218 40.1876 29.8898 39.1236 29.9398C38.8863 29.9509 38.649 29.9609 38.4116 29.9698L38.2176 29.9758C37.7246 29.9898 37.1536 29.9968 36.0286 29.9988L35.2826 29.9998H33.9736C33.2438 30.0023 32.5141 29.9946 31.7846 29.9768L31.5906 29.9708C31.3532 29.9618 31.1158 29.9514 30.8786 29.9398C29.8146 29.8898 29.0886 29.7218 28.4506 29.4748C27.7832 29.2241 27.1788 28.8306 26.6796 28.3218C26.1706 27.822 25.7768 27.2173 25.5256 26.5498C25.2786 25.9128 25.1106 25.1868 25.0606 24.1218C25.0494 23.8845 25.0394 23.6471 25.0306 23.4098L25.0256 23.2158C25.0071 22.4866 24.9988 21.7572 25.0006 21.0278V18.9718C24.9978 18.2424 25.0051 17.513 25.0226 16.7838L25.0296 16.5898C25.0376 16.3648 25.0476 16.1438 25.0596 15.8778C25.1096 14.8128 25.2776 14.0878 25.5246 13.4498C25.7757 12.7817 26.1703 12.1768 26.6806 11.6778C27.1797 11.1692 27.7837 10.7757 28.4506 10.5248C29.0886 10.2778 29.8136 10.1098 30.8786 10.0598C31.1446 10.0478 31.3666 10.0378 31.5906 10.0298L31.7846 10.0238C32.5138 10.006 33.2432 9.99832 33.9726 10.0008L36.0286 9.99976ZM35.0006 14.9998C33.6745 14.9998 32.4027 15.5265 31.465 16.4642C30.5274 17.4019 30.0006 18.6737 30.0006 19.9998C30.0006 21.3258 30.5274 22.5976 31.465 23.5353C32.4027 24.473 33.6745 24.9998 35.0006 24.9998C36.3267 24.9998 37.5984 24.473 38.5361 23.5353C39.4738 22.5976 40.0006 21.3258 40.0006 19.9998C40.0006 18.6737 39.4738 17.4019 38.5361 16.4642C37.5984 15.5265 36.3267 14.9998 35.0006 14.9998ZM35.0006 16.9998C35.3945 16.9997 35.7847 17.0772 36.1487 17.2279C36.5127 17.3786 36.8434 17.5996 37.122 17.8781C37.4007 18.1566 37.6217 18.4873 37.7725 18.8512C37.9233 19.2152 38.001 19.6053 38.0011 19.9993C38.0011 20.3932 37.9236 20.7833 37.7729 21.1473C37.6222 21.5113 37.4013 21.8421 37.1228 22.1207C36.8442 22.3993 36.5135 22.6204 36.1496 22.7712C35.7856 22.922 35.3955 22.9997 35.0016 22.9998C34.2059 22.9998 33.4429 22.6837 32.8803 22.1211C32.3176 21.5585 32.0016 20.7954 32.0016 19.9998C32.0016 19.2041 32.3176 18.441 32.8803 17.8784C33.4429 17.3158 34.2059 16.9998 35.0016 16.9998M40.2516 13.4998C39.9201 13.4998 39.6021 13.6315 39.3677 13.8659C39.1333 14.1003 39.0016 14.4182 39.0016 14.7498C39.0016 15.0813 39.1333 15.3992 39.3677 15.6336C39.6021 15.8681 39.9201 15.9998 40.2516 15.9998C40.5831 15.9998 40.901 15.8681 41.1355 15.6336C41.3699 15.3992 41.5016 15.0813 41.5016 14.7498C41.5016 14.4182 41.3699 14.1003 41.1355 13.8659C40.901 13.6315 40.5831 13.4998 40.2516 13.4998Z" fill="white"/>
</svg>
