<svg width="69" height="40" viewBox="0 0 69 40" fill="none" xmlns="http://www.w3.org/2000/svg">
<rect width="69" height="40" rx="5" fill="#0076B2"/>
<path d="M44.2 10H25.8C25.3575 10 25 10.3575 25 10.8V29.2C25 29.6425 25.3575 30 25.8 30H44.2C44.6425 30 45 29.6425 45 29.2V10.8C45 10.3575 44.6425 10 44.2 10ZM30.9325 27.0425H27.965V17.4975H30.9325V27.0425ZM29.45 16.1925C29.1098 16.1925 28.7773 16.0916 28.4944 15.9026C28.2116 15.7136 27.9911 15.445 27.8609 15.1307C27.7307 14.8164 27.6967 14.4706 27.763 14.1369C27.8294 13.8033 27.9932 13.4968 28.2338 13.2563C28.4743 13.0157 28.7808 12.8519 29.1144 12.7855C29.4481 12.7192 29.7939 12.7532 30.1082 12.8834C30.4225 13.0136 30.6911 13.2341 30.8801 13.5169C31.0691 13.7998 31.17 14.1323 31.17 14.4725C31.1675 15.4225 30.3975 16.1925 29.45 16.1925ZM42.0425 27.0425H39.0775V22.4C39.0775 21.2925 39.0575 19.87 37.535 19.87C35.9925 19.87 35.755 21.075 35.755 22.32V27.0425H32.7925V17.4975H35.6375V18.8025H35.6775C36.0725 18.0525 37.04 17.26 38.485 17.26C41.49 17.26 42.0425 19.2375 42.0425 21.8075V27.0425Z" fill="white"/>
</svg>
