<svg width="427" height="332" viewBox="0 0 427 332" fill="none" xmlns="http://www.w3.org/2000/svg">
<g clip-path="url(#clip0_103_1347)">
<path d="M243.136 162.338C252.744 162.338 260.533 154.54 260.533 144.92C260.533 135.301 252.744 127.503 243.136 127.503C233.527 127.503 225.738 135.301 225.738 144.92C225.738 154.54 233.527 162.338 243.136 162.338Z" fill="#E6E6E6"/>
<path d="M285.774 167.303L267.593 149.101C268.987 146.931 269.931 144.503 270.37 141.961C270.809 139.419 270.734 136.814 270.15 134.301C269.565 131.789 268.483 129.419 266.967 127.333C265.45 125.247 263.531 123.486 261.323 122.156C257.166 119.67 252.227 118.837 247.485 119.823C242.743 120.809 238.543 123.542 235.719 127.481C233.12 131.13 231.871 135.571 232.189 140.041C232.506 144.511 234.368 148.731 237.456 151.975C240.544 155.219 244.665 157.285 249.109 157.817C253.554 158.35 258.045 157.315 261.81 154.891L279.991 173.093C280.758 173.86 281.798 174.291 282.882 174.291C283.966 174.29 285.006 173.859 285.772 173.092C286.539 172.324 286.97 171.283 286.97 170.198C286.97 169.112 286.54 168.071 285.774 167.303ZM261.131 148.422C258.878 150.677 255.914 152.081 252.744 152.393C249.573 152.706 246.393 151.908 243.744 150.136C241.095 148.365 239.141 145.728 238.217 142.676C237.292 139.623 237.453 136.345 238.672 133.398C239.891 130.451 242.093 128.019 244.903 126.515C247.712 125.012 250.956 124.53 254.08 125.152C257.205 125.774 260.017 127.462 262.038 129.928C264.06 132.393 265.164 135.484 265.164 138.674C265.166 140.484 264.811 142.278 264.119 143.951C263.427 145.624 262.412 147.143 261.131 148.422Z" fill="#3F3D56"/>
<path d="M417.563 194.152C464.057 245.629 329.277 319.817 220.371 319.817C111.465 319.817 36.1192 262.335 23.1794 194.152C-8.19524 28.8303 290.499 -76.247 220.371 68.4863C118.151 279.452 380.947 153.612 417.563 194.152Z" fill="#E6E6E6"/>
<path d="M396.701 206.335C443.196 257.813 308.416 332 199.51 332C90.6038 332 15.2579 274.518 2.31808 206.335C-29.0566 41.0136 269.638 -64.0637 199.51 80.6696C97.2901 291.635 360.086 165.795 396.701 206.335Z" fill="#3F3D56"/>
<path d="M65.015 85.6419C32.3898 84.2037 7.09376 77.1581 7.42609 69.6016C7.62533 65.0713 16.8586 61.4283 32.7582 59.6072C32.8151 59.6003 32.8728 59.6047 32.928 59.6202C32.9831 59.6358 33.0347 59.662 33.0797 59.6976C33.1247 59.7332 33.1622 59.7773 33.1901 59.8274C33.218 59.8775 33.2357 59.9327 33.2422 59.9897C33.2488 60.0467 33.2439 60.1045 33.2281 60.1596C33.2122 60.2147 33.1856 60.2662 33.1498 60.311C33.114 60.3558 33.0697 60.3931 33.0194 60.4207C32.9691 60.4483 32.9139 60.4656 32.8569 60.4718C17.8795 62.1874 8.46773 65.7005 8.29446 69.6399C7.99393 76.4732 33.9862 83.403 65.0532 84.7725C96.1202 86.142 122.62 81.5261 122.921 74.6928C123.095 70.7368 113.969 66.3971 99.105 63.3674C99.049 63.3562 98.9957 63.3339 98.9482 63.302C98.9007 63.2701 98.86 63.2291 98.8284 63.1814C98.7968 63.1337 98.7749 63.0802 98.7639 63.024C98.753 62.9678 98.7532 62.91 98.7646 62.8539C98.776 62.7978 98.7984 62.7446 98.8304 62.6971C98.8624 62.6497 98.9035 62.609 98.9512 62.5775C98.999 62.546 99.0524 62.5242 99.1086 62.5134C99.1647 62.5026 99.2225 62.503 99.2785 62.5146C115.055 65.7304 123.989 70.1831 123.789 74.7311C123.457 82.2875 97.6401 87.0801 65.015 85.6419Z" fill="#6C63FF"/>
<path d="M36.0391 86.9075C38.7684 92.0982 42.8113 96.4804 47.7635 99.6156C52.7157 102.751 58.4035 104.529 64.2577 104.772C70.1118 105.015 75.9272 103.715 81.1218 101.002C86.3165 98.2882 90.7083 94.2566 93.8579 89.3101C74.5555 89.5705 55.2535 88.7685 36.0391 86.9075Z" fill="#6C63FF"/>
<path d="M97.467 80.1574C99.1096 75.2248 99.5829 69.9772 98.8495 64.8299C98.116 59.6825 96.196 54.7767 93.2413 50.5007C90.2867 46.2248 86.3785 42.696 81.826 40.1936C77.2736 37.6913 72.2019 36.2842 67.0124 36.0835C61.8228 35.8829 56.6579 36.8943 51.9262 39.0377C47.1946 41.181 43.0262 44.3976 39.751 48.4327C36.4758 52.4678 34.1836 57.2108 33.0558 62.2862C31.9281 67.3616 31.9957 72.6301 33.2535 77.6748C54.4607 81.279 76.0453 82.1135 97.467 80.1574Z" fill="#6C63FF"/>
<path d="M73.3768 57.6967C75.5371 57.6967 77.2883 55.9435 77.2883 53.7807C77.2883 51.6179 75.5371 49.8647 73.3768 49.8647C71.2166 49.8647 69.4653 51.6179 69.4653 53.7807C69.4653 55.9435 71.2166 57.6967 73.3768 57.6967Z" fill="white"/>
<path d="M53.2457 72.9217C56.8462 72.9217 59.7649 69.9996 59.7649 66.395C59.7649 62.7903 56.8462 59.8682 53.2457 59.8682C49.6453 59.8682 46.7266 62.7903 46.7266 66.395C46.7266 69.9996 49.6453 72.9217 53.2457 72.9217Z" fill="white"/>
<path d="M151.638 66.5284C154.038 66.5284 155.984 64.5803 155.984 62.1773C155.984 59.7743 154.038 57.8263 151.638 57.8263C149.238 57.8263 147.292 59.7743 147.292 62.1773C147.292 64.5803 149.238 66.5284 151.638 66.5284Z" fill="#6C63FF"/>
<path d="M53.4158 199.674C54.856 199.674 56.0235 198.505 56.0235 197.063C56.0235 195.622 54.856 194.453 53.4158 194.453C51.9756 194.453 50.8081 195.622 50.8081 197.063C50.8081 198.505 51.9756 199.674 53.4158 199.674Z" fill="#E6E6E6"/>
<path d="M235.952 289.308C237.393 289.308 238.56 288.139 238.56 286.697C238.56 285.256 237.393 284.087 235.952 284.087C234.512 284.087 233.345 285.256 233.345 286.697C233.345 288.139 234.512 289.308 235.952 289.308Z" fill="#E6E6E6"/>
<path d="M66.0197 149.201C66.7398 149.201 67.3235 148.616 67.3235 147.895C67.3235 147.174 66.7398 146.59 66.0197 146.59C65.2996 146.59 64.7158 147.174 64.7158 147.895C64.7158 148.616 65.2996 149.201 66.0197 149.201Z" fill="#E6E6E6"/>
<path d="M173.803 246.667C174.523 246.667 175.107 246.082 175.107 245.361C175.107 244.64 174.523 244.056 173.803 244.056C173.083 244.056 172.499 244.64 172.499 245.361C172.499 246.082 173.083 246.667 173.803 246.667Z" fill="#E6E6E6"/>
<path d="M369.813 234.048C370.533 234.048 371.117 233.464 371.117 232.743C371.117 232.022 370.533 231.438 369.813 231.438C369.093 231.438 368.509 232.022 368.509 232.743C368.509 233.464 369.093 234.048 369.813 234.048Z" fill="#E6E6E6"/>
<path d="M308.532 272.774C309.252 272.774 309.836 272.189 309.836 271.468C309.836 270.747 309.252 270.163 308.532 270.163C307.812 270.163 307.229 270.747 307.229 271.468C307.229 272.189 307.812 272.774 308.532 272.774Z" fill="#E6E6E6"/>
<path d="M244.645 225.781C245.365 225.781 245.949 225.197 245.949 224.476C245.949 223.755 245.365 223.17 244.645 223.17C243.925 223.17 243.341 223.755 243.341 224.476C243.341 225.197 243.925 225.781 244.645 225.781Z" fill="#E6E6E6"/>
<path d="M162.069 96.9867C162.789 96.9867 163.372 96.4022 163.372 95.6813C163.372 94.9604 162.789 94.3759 162.069 94.3759C161.348 94.3759 160.765 94.9604 160.765 95.6813C160.765 96.4022 161.348 96.9867 162.069 96.9867Z" fill="#E6E6E6"/>
<path d="M172.499 32.5894C173.219 32.5894 173.803 32.005 173.803 31.284C173.803 30.5631 173.219 29.9787 172.499 29.9787C171.779 29.9787 171.195 30.5631 171.195 31.284C171.195 32.005 171.779 32.5894 172.499 32.5894Z" fill="#E6E6E6"/>
<path d="M166.415 303.667C167.135 303.667 167.719 303.083 167.719 302.362C167.719 301.641 167.135 301.056 166.415 301.056C165.695 301.056 165.111 301.641 165.111 302.362C165.111 303.083 165.695 303.667 166.415 303.667Z" fill="#E6E6E6"/>
<path d="M102.092 276.255C102.813 276.255 103.396 275.67 103.396 274.949C103.396 274.228 102.813 273.644 102.092 273.644C101.372 273.644 100.789 274.228 100.789 274.949C100.789 275.67 101.372 276.255 102.092 276.255Z" fill="#E6E6E6"/>
<path d="M305.925 229.262C306.645 229.262 307.229 228.678 307.229 227.957C307.229 227.236 306.645 226.651 305.925 226.651C305.205 226.651 304.621 227.236 304.621 227.957C304.621 228.678 305.205 229.262 305.925 229.262Z" fill="#E6E6E6"/>
<path d="M64.4847 101.73C66.645 101.73 68.3962 99.9764 68.3962 97.8136C68.3962 95.6508 66.645 93.8976 64.4847 93.8976C62.3245 93.8976 60.5732 95.6508 60.5732 97.8136C60.5732 99.9764 62.3245 101.73 64.4847 101.73Z" fill="white"/>
<path d="M152.942 157.903C152.942 169.599 134.879 196.853 129.601 204.568C129.442 204.801 129.228 204.992 128.979 205.124C128.729 205.256 128.451 205.324 128.169 205.324C127.887 205.324 127.609 205.256 127.359 205.124C127.11 204.992 126.896 204.801 126.737 204.568C121.458 196.853 103.396 169.599 103.396 157.903C103.396 154.646 104.037 151.421 105.282 148.412C106.527 145.403 108.351 142.669 110.652 140.366C112.952 138.063 115.683 136.236 118.689 134.989C121.694 133.743 124.916 133.101 128.169 133.101C131.422 133.101 134.643 133.743 137.649 134.989C140.655 136.236 143.386 138.063 145.686 140.366C147.986 142.669 149.811 145.403 151.056 148.412C152.301 151.421 152.942 154.646 152.942 157.903Z" fill="white"/>
<path d="M128.169 168.781C135.13 168.781 140.773 163.131 140.773 156.163C140.773 149.194 135.13 143.544 128.169 143.544C121.208 143.544 115.565 149.194 115.565 156.163C115.565 163.131 121.208 168.781 128.169 168.781Z" fill="#6C63FF"/>
<path d="M127.952 218.819C135.993 218.819 142.511 217.553 142.511 215.991C142.511 214.429 135.993 213.163 127.952 213.163C119.911 213.163 113.392 214.429 113.392 215.991C113.392 217.553 119.911 218.819 127.952 218.819Z" fill="white"/>
<path d="M355.014 138.332C354.904 138.546 354.81 138.768 354.735 138.997L333.968 144.774L330.226 141.107L323.96 146.039L329.956 153.174C330.44 153.751 331.098 154.154 331.831 154.324C332.564 154.495 333.332 154.422 334.02 154.118L356.453 144.204C357.214 144.733 358.118 145.017 359.045 145.019C359.971 145.021 360.876 144.741 361.64 144.215C362.403 143.69 362.989 142.944 363.318 142.077C363.648 141.21 363.706 140.264 363.485 139.363C363.265 138.462 362.775 137.65 362.082 137.035C361.389 136.419 360.525 136.03 359.605 135.918C358.686 135.806 357.754 135.977 356.933 136.408C356.113 136.839 355.444 137.51 355.014 138.332Z" fill="#FFB8B8"/>
<path d="M333.236 145.113L325.441 151.187C325.219 151.36 324.963 151.482 324.69 151.547C324.416 151.612 324.132 151.617 323.856 151.561C323.581 151.506 323.32 151.392 323.093 151.227C322.865 151.062 322.676 150.85 322.537 150.605L317.693 142.021C316.816 140.88 316.427 139.437 316.611 138.01C316.794 136.582 317.536 135.285 318.674 134.404C319.811 133.523 321.251 133.13 322.678 133.31C324.105 133.49 325.402 134.23 326.285 135.366L333.386 142.151C333.589 142.346 333.748 142.582 333.852 142.843C333.956 143.105 334.002 143.385 333.988 143.666C333.974 143.947 333.899 144.222 333.77 144.472C333.64 144.721 333.458 144.94 333.236 145.113Z" fill="#6C63FF"/>
<path d="M357.005 135.459L364.91 139.02C365.241 139.169 365.499 139.443 365.628 139.783C365.757 140.123 365.745 140.5 365.596 140.831L364.66 142.914C364.771 142.964 364.856 143.055 364.899 143.169C364.942 143.282 364.939 143.407 364.889 143.518L364.515 144.351C364.465 144.461 364.374 144.547 364.261 144.59C364.147 144.633 364.022 144.629 363.912 144.58L363.537 145.413C363.647 145.463 363.733 145.555 363.776 145.668C363.819 145.781 363.815 145.906 363.766 146.017L363.392 146.85C363.342 146.96 363.25 147.046 363.137 147.089C363.024 147.132 362.899 147.128 362.789 147.079L357.735 158.325C357.586 158.657 357.312 158.915 356.972 159.044C356.633 159.173 356.256 159.162 355.925 159.013L348.02 155.452C347.689 155.303 347.431 155.028 347.302 154.689C347.174 154.349 347.185 153.972 347.334 153.64L355.195 136.146C355.344 135.815 355.619 135.556 355.958 135.428C356.297 135.299 356.674 135.31 357.005 135.459Z" fill="#3F3D56"/>
<path d="M349.456 154.344L355.797 157.203C356.115 157.345 356.476 157.356 356.801 157.233C357.127 157.11 357.391 156.863 357.535 156.545L360.464 150.023L361.481 147.762L364.132 141.861C364.274 141.544 364.284 141.183 364.161 140.858C364.038 140.533 363.791 140.27 363.475 140.126L361.481 139.226L357.129 137.267C356.811 137.125 356.451 137.115 356.126 137.239C355.801 137.363 355.538 137.611 355.396 137.929L352.832 143.634L349.912 150.128L348.799 152.608C348.657 152.926 348.646 153.287 348.769 153.612C348.892 153.937 349.139 154.201 349.456 154.344Z" fill="#F2F2F2"/>
<path d="M336.205 235.156L341.534 235.155L344.069 214.579L336.205 214.58L336.205 235.156Z" fill="#FFB8B8"/>
<path d="M334.846 233.414L345.339 233.414C346.218 233.414 347.088 233.587 347.899 233.923C348.71 234.26 349.447 234.753 350.068 235.374C350.689 235.996 351.182 236.734 351.518 237.546C351.854 238.359 352.027 239.229 352.027 240.108V240.326L334.847 240.327L334.846 233.414Z" fill="#094044"/>
<path d="M350.113 233.85L355.441 233.85L357.976 213.274L350.112 213.274L350.113 233.85Z" fill="#FFB8B8"/>
<path d="M348.754 232.109L359.247 232.108C360.125 232.108 360.995 232.281 361.807 232.618C362.618 232.954 363.355 233.447 363.976 234.069C364.597 234.691 365.09 235.429 365.426 236.241C365.762 237.053 365.935 237.924 365.935 238.803V239.021L348.754 239.021L348.754 232.109Z" fill="#094044"/>
<path d="M312.305 186.873C313.44 190.242 315.594 193.175 318.467 195.264C321.34 197.354 324.791 198.499 328.342 198.539L328.612 198.543C331.363 198.621 334.592 197.734 337.76 196.459C344.019 193.939 350.029 189.906 351.624 188.796L348.921 214.812L347.826 225.359C347.798 225.632 347.828 225.908 347.913 226.168C347.998 226.429 348.137 226.669 348.321 226.873C348.504 227.076 348.728 227.239 348.978 227.351C349.228 227.463 349.499 227.521 349.773 227.522H356.522C356.955 227.522 357.376 227.379 357.719 227.114C358.062 226.849 358.307 226.479 358.417 226.06L369.561 183.571C369.895 182.299 369.922 180.966 369.639 179.681C369.357 178.397 368.772 177.199 367.935 176.185C367.098 175.172 366.032 174.373 364.825 173.854C363.618 173.335 362.305 173.112 360.994 173.202L337.847 174.79L339.464 168.315L318.802 166.94L318.742 166.984C318.246 167.345 317.764 167.724 317.303 168.12C316.151 169.095 315.13 170.215 314.265 171.453C312.718 173.673 311.731 176.236 311.39 178.921C311.048 181.607 311.362 184.335 312.305 186.873Z" fill="#094044"/>
<path d="M312.305 186.873C313.44 190.242 315.594 193.175 318.467 195.264C321.34 197.354 324.791 198.499 328.342 198.538C331.738 196.818 335.015 194.871 338.151 192.712L337.76 196.459L334.353 229.275C334.325 229.548 334.355 229.824 334.44 230.084C334.525 230.345 334.664 230.585 334.848 230.789C335.031 230.992 335.255 231.155 335.505 231.267C335.755 231.379 336.026 231.437 336.3 231.438H343.049C343.482 231.438 343.903 231.295 344.246 231.03C344.589 230.766 344.834 230.395 344.944 229.976L348.921 214.812L356.088 187.487C356.422 186.215 356.449 184.882 356.166 183.597C355.884 182.313 355.299 181.115 354.462 180.101C353.625 179.088 352.559 178.289 351.352 177.77C350.145 177.251 348.832 177.028 347.522 177.118L324.374 178.706L325.991 172.231L314.265 171.453C312.718 173.673 311.731 176.236 311.39 178.921C311.048 181.607 311.362 184.335 312.305 186.873Z" fill="#094044"/>
<path d="M317.274 169.621L317.118 169.602L313.513 151.856C313.482 151.701 310.535 136.394 319.57 128.392L319.728 127.297C319.768 127.017 319.868 126.748 320.022 126.511C320.176 126.273 320.379 126.072 320.619 125.92C320.858 125.769 321.127 125.672 321.407 125.634C321.687 125.597 321.973 125.622 322.243 125.705L330.754 128.349C331.236 128.497 331.642 128.827 331.887 129.268C332.131 129.71 332.196 130.229 332.067 130.716L331.239 133.867C332.386 135.216 345.892 151.495 341.188 164.036L339.081 172.283L317.274 169.621Z" fill="#6C63FF"/>
<path d="M352.616 155.77C352.413 155.899 352.22 156.043 352.039 156.201L331.222 150.607L329.861 145.544L321.962 146.602L323.501 155.798C323.626 156.541 323.987 157.223 324.532 157.743C325.077 158.263 325.775 158.591 326.522 158.68L350.875 161.56C351.261 162.402 351.895 163.107 352.692 163.581C353.489 164.054 354.411 164.273 355.335 164.209C356.259 164.145 357.142 163.801 357.866 163.222C358.59 162.644 359.121 161.858 359.388 160.97C359.656 160.082 359.646 159.133 359.362 158.251C359.078 157.368 358.531 156.593 357.796 156.028C357.061 155.464 356.172 155.137 355.247 155.091C354.321 155.045 353.404 155.282 352.616 155.77Z" fill="#FFB8B8"/>
<path d="M330.42 150.526L320.623 151.789C320.344 151.825 320.061 151.8 319.793 151.717C319.524 151.633 319.277 151.493 319.068 151.305C318.859 151.117 318.692 150.887 318.58 150.629C318.468 150.371 318.413 150.091 318.418 149.81L318.605 139.953C318.429 138.524 318.826 137.084 319.71 135.948C320.593 134.812 321.891 134.073 323.317 133.893C324.744 133.713 326.184 134.107 327.321 134.989C328.458 135.87 329.199 137.167 329.383 138.595L332.052 148.052C332.128 148.323 332.146 148.607 332.102 148.885C332.059 149.163 331.957 149.428 331.802 149.663C331.647 149.898 331.443 150.096 331.205 150.245C330.966 150.394 330.699 150.49 330.42 150.526Z" fill="#6C63FF"/>
<path d="M327.662 123.297C333.558 123.297 338.337 118.512 338.337 112.61C338.337 106.708 333.558 101.923 327.662 101.923C321.767 101.923 316.988 106.708 316.988 112.61C316.988 118.512 321.767 123.297 327.662 123.297Z" fill="#FFB8B8"/>
<path d="M327.101 113.502L325.764 111.066C323.233 121.392 327.704 129.938 327.704 129.938L310.349 121.845L310.514 118.973L308.797 120.924L306.33 119.563L306.004 117.7L304.141 118.162L310.94 105.81C317.538 94.0562 327.131 98.5437 327.131 98.5437C342.393 97.8173 340.529 112.892 340.529 112.892L327.101 113.502Z" fill="#094044"/>
<path d="M205.589 193.142C208.05 191.563 205.057 182.492 198.904 172.883C192.75 163.273 185.767 156.763 183.306 158.343C180.845 159.923 183.838 168.993 189.991 178.603C196.144 188.212 203.127 194.722 205.589 193.142Z" fill="#3F3D56"/>
</g>
<defs>
<clipPath id="clip0_103_1347">
<rect width="427" height="332" fill="white"/>
</clipPath>
</defs>
</svg>
