<svg width="537" height="405" viewBox="0 0 537 405" fill="none" xmlns="http://www.w3.org/2000/svg">
<g clip-path="url(#clip0_103_1276)">
<path d="M394.981 302.951H80.7014C78.0206 302.948 75.4504 301.883 73.5548 299.989C71.6592 298.095 70.5929 295.527 70.5898 292.849V104.176C70.592 102.213 71.3732 100.332 72.7619 98.9445C74.1507 97.5569 76.0336 96.7764 77.9976 96.7742H397.557C399.555 96.7764 401.47 97.5704 402.883 98.982C404.296 100.394 405.09 102.307 405.093 104.303V292.849C405.09 295.527 404.023 298.095 402.128 299.989C400.232 301.883 397.662 302.948 394.981 302.951Z" fill="#F2F2F2"/>
<path d="M90.5064 292.849H385.176C387.776 292.849 390.27 291.817 392.109 289.98C393.948 288.142 394.981 285.651 394.981 283.053V122.915C394.981 120.316 393.948 117.825 392.109 115.988C390.27 114.15 387.776 113.118 385.176 113.118H90.5064C87.9059 113.118 85.4119 114.15 83.573 115.988C81.7342 117.825 80.7012 120.316 80.7012 122.915V283.053C80.7012 285.651 81.7342 288.142 83.573 289.98C85.4119 291.817 87.9059 292.849 90.5064 292.849Z" fill="white"/>
<path d="M404.952 103.598H70.4478V98.4544C70.4516 95.767 71.5223 93.191 73.4248 91.2914C75.3274 89.3917 77.9064 88.3236 80.5961 88.3214H394.803C397.493 88.3236 400.072 89.3917 401.975 91.2913C403.877 93.191 404.948 95.767 404.952 98.4544V103.598Z" fill="#6C63FF"/>
<path d="M88.8911 98.5973C90.3408 98.5973 91.5161 97.4231 91.5161 95.9747C91.5161 94.5263 90.3408 93.3521 88.8911 93.3521C87.4414 93.3521 86.2661 94.5263 86.2661 95.9747C86.2661 97.4231 87.4414 98.5973 88.8911 98.5973Z" fill="white"/>
<path d="M98.8545 98.5973C100.304 98.5973 101.479 97.4231 101.479 95.9747C101.479 94.5263 100.304 93.3521 98.8545 93.3521C97.4047 93.3521 96.2295 94.5263 96.2295 95.9747C96.2295 97.4231 97.4047 98.5973 98.8545 98.5973Z" fill="white"/>
<path d="M108.818 98.5973C110.268 98.5973 111.443 97.4231 111.443 95.9747C111.443 94.5263 110.268 93.3521 108.818 93.3521C107.369 93.3521 106.193 94.5263 106.193 95.9747C106.193 97.4231 107.369 98.5973 108.818 98.5973Z" fill="white"/>
<path d="M247.036 258.12H220.684C219.141 258.119 217.661 257.505 216.569 256.415C215.478 255.324 214.864 253.846 214.862 252.304V225.976C214.864 224.434 215.478 222.956 216.569 221.865C217.661 220.775 219.141 220.161 220.684 220.16H247.036C248.579 220.161 250.059 220.775 251.15 221.865C252.242 222.956 252.856 224.434 252.857 225.976V252.304C252.856 253.846 252.242 255.324 251.15 256.415C250.059 257.505 248.579 258.119 247.036 258.12ZM220.684 221.384C219.466 221.385 218.297 221.87 217.436 222.731C216.574 223.591 216.089 224.759 216.088 225.976V252.304C216.089 253.521 216.574 254.688 217.436 255.549C218.297 256.41 219.466 256.894 220.684 256.896H247.036C248.254 256.894 249.422 256.41 250.284 255.549C251.146 254.688 251.63 253.521 251.632 252.304V225.976C251.63 224.759 251.146 223.591 250.284 222.731C249.422 221.87 248.254 221.385 247.036 221.384H220.684Z" fill="#CCCCCC"/>
<path d="M241.827 250.773H225.893C225.406 250.773 224.938 250.579 224.594 250.234C224.249 249.89 224.055 249.423 224.055 248.936V229.344C224.055 228.857 224.249 228.39 224.594 228.045C224.938 227.701 225.406 227.507 225.893 227.507H237.438C237.857 227.507 238.263 227.65 238.59 227.912L242.978 231.435C243.193 231.606 243.366 231.824 243.485 232.072C243.604 232.32 243.666 232.592 243.665 232.867V248.936C243.665 249.423 243.471 249.89 243.126 250.234C242.781 250.579 242.314 250.773 241.827 250.773ZM225.893 228.731C225.731 228.732 225.575 228.796 225.46 228.911C225.345 229.026 225.281 229.181 225.28 229.344V248.936C225.281 249.099 225.345 249.254 225.46 249.369C225.575 249.484 225.731 249.548 225.893 249.549H241.827C241.989 249.548 242.145 249.484 242.26 249.369C242.375 249.254 242.439 249.099 242.439 248.936V232.867C242.44 232.775 242.419 232.684 242.38 232.602C242.34 232.519 242.282 232.447 242.21 232.389L237.822 228.866C237.713 228.779 237.578 228.731 237.438 228.731H225.893Z" fill="#CCCCCC"/>
<path d="M238.762 236.079H228.957C228.795 236.079 228.639 236.014 228.524 235.899C228.409 235.784 228.344 235.629 228.344 235.466C228.344 235.304 228.409 235.148 228.524 235.033C228.639 234.919 228.795 234.854 228.957 234.854H238.762C238.925 234.854 239.081 234.919 239.196 235.033C239.31 235.148 239.375 235.304 239.375 235.466C239.375 235.629 239.31 235.784 239.196 235.899C239.081 236.014 238.925 236.079 238.762 236.079Z" fill="#CCCCCC"/>
<path d="M238.762 239.752H228.957C228.795 239.752 228.639 239.688 228.524 239.573C228.409 239.458 228.344 239.302 228.344 239.14C228.344 238.978 228.409 238.822 228.524 238.707C228.639 238.592 228.795 238.528 228.957 238.528H238.762C238.925 238.528 239.081 238.592 239.196 238.707C239.31 238.822 239.375 238.978 239.375 239.14C239.375 239.302 239.31 239.458 239.196 239.573C239.081 239.688 238.925 239.752 238.762 239.752Z" fill="#CCCCCC"/>
<path d="M238.762 243.426H228.957C228.795 243.426 228.639 243.361 228.524 243.246C228.409 243.132 228.344 242.976 228.344 242.814C228.344 242.651 228.409 242.495 228.524 242.381C228.639 242.266 228.795 242.201 228.957 242.201H238.762C238.925 242.201 239.081 242.266 239.196 242.381C239.31 242.495 239.375 242.651 239.375 242.814C239.375 242.976 239.31 243.132 239.196 243.246C239.081 243.361 238.925 243.426 238.762 243.426Z" fill="#CCCCCC"/>
<path d="M309.543 258.12H283.192C281.648 258.119 280.169 257.505 279.077 256.415C277.986 255.324 277.372 253.846 277.37 252.304V225.976C277.372 224.434 277.986 222.956 279.077 221.865C280.169 220.775 281.648 220.161 283.192 220.16H309.543C311.087 220.161 312.567 220.775 313.658 221.865C314.749 222.956 315.363 224.434 315.365 225.976V252.304C315.363 253.846 314.749 255.324 313.658 256.415C312.567 257.505 311.087 258.119 309.543 258.12ZM283.192 221.384C281.973 221.385 280.805 221.87 279.943 222.731C279.082 223.591 278.597 224.759 278.596 225.976V252.304C278.597 253.521 279.082 254.688 279.943 255.549C280.805 256.41 281.973 256.894 283.192 256.896H309.543C310.762 256.894 311.93 256.41 312.792 255.549C313.653 254.688 314.138 253.521 314.14 252.304V225.976C314.138 224.759 313.653 223.591 312.792 222.731C311.93 221.87 310.762 221.385 309.543 221.384H283.192Z" fill="#CCCCCC"/>
<path d="M304.947 245.875H287.788C287.301 245.874 286.833 245.681 286.489 245.336C286.144 244.992 285.95 244.525 285.95 244.038V234.242C285.95 233.755 286.144 233.288 286.489 232.943C286.833 232.599 287.301 232.405 287.788 232.405H304.947C305.435 232.405 305.902 232.599 306.247 232.943C306.591 233.288 306.785 233.755 306.786 234.242V244.038C306.785 244.525 306.591 244.992 306.247 245.336C305.902 245.681 305.435 245.874 304.947 245.875ZM287.788 233.629C287.626 233.63 287.47 233.694 287.355 233.809C287.24 233.924 287.176 234.079 287.175 234.242V244.038C287.176 244.2 287.24 244.356 287.355 244.471C287.47 244.586 287.626 244.65 287.788 244.65H304.947C305.11 244.65 305.265 244.586 305.38 244.471C305.495 244.356 305.56 244.2 305.56 244.038V234.242C305.56 234.079 305.495 233.924 305.38 233.809C305.265 233.694 305.11 233.63 304.947 233.629H287.788Z" fill="#CCCCCC"/>
<path d="M296.368 240.755C296.024 240.756 295.686 240.66 295.394 240.478L286.238 234.761C286.1 234.675 286.003 234.538 285.966 234.379C285.93 234.221 285.958 234.055 286.044 233.918C286.13 233.78 286.267 233.682 286.425 233.646C286.584 233.609 286.75 233.637 286.888 233.722L296.043 239.439C296.141 239.5 296.253 239.532 296.368 239.532C296.483 239.532 296.595 239.5 296.693 239.439L305.848 233.722C305.986 233.637 306.152 233.609 306.31 233.646C306.469 233.682 306.606 233.78 306.692 233.918C306.778 234.055 306.806 234.221 306.769 234.379C306.733 234.538 306.635 234.675 306.498 234.761L297.343 240.478C297.05 240.66 296.712 240.756 296.368 240.755Z" fill="#CCCCCC"/>
<path d="M184.527 258.12H158.176C156.632 258.119 155.153 257.505 154.061 256.415C152.97 255.324 152.356 253.846 152.354 252.304V225.976C152.356 224.434 152.97 222.956 154.061 221.865C155.153 220.775 156.632 220.161 158.176 220.16H184.527C186.071 220.161 187.551 220.775 188.642 221.865C189.733 222.956 190.347 224.434 190.349 225.976V252.304C190.347 253.846 189.733 255.324 188.642 256.415C187.551 257.505 186.071 258.119 184.527 258.12ZM158.176 221.384C156.957 221.385 155.789 221.87 154.927 222.731C154.066 223.591 153.581 224.759 153.58 225.976V252.304C153.581 253.521 154.066 254.688 154.927 255.549C155.789 256.41 156.957 256.894 158.176 256.896H184.527C185.746 256.894 186.914 256.41 187.776 255.549C188.637 254.688 189.122 253.521 189.123 252.304V225.976C189.122 224.759 188.637 223.591 187.776 222.731C186.914 221.87 185.746 221.385 184.527 221.384H158.176Z" fill="#CCCCCC"/>
<path d="M179.931 245.875H162.772C162.285 245.874 161.817 245.681 161.473 245.336C161.128 244.992 160.934 244.525 160.934 244.038V234.242C160.934 233.755 161.128 233.288 161.473 232.943C161.817 232.599 162.285 232.405 162.772 232.405H179.931C180.419 232.405 180.886 232.599 181.231 232.943C181.575 233.288 181.769 233.755 181.77 234.242V244.038C181.769 244.525 181.575 244.992 181.231 245.336C180.886 245.681 180.419 245.874 179.931 245.875ZM162.772 233.629C162.61 233.63 162.454 233.694 162.339 233.809C162.224 233.924 162.159 234.079 162.159 234.242V244.038C162.159 244.2 162.224 244.356 162.339 244.471C162.454 244.586 162.61 244.65 162.772 244.65H179.931C180.094 244.65 180.249 244.586 180.364 244.471C180.479 244.356 180.544 244.2 180.544 244.038V234.242C180.544 234.079 180.479 233.924 180.364 233.809C180.249 233.694 180.094 233.63 179.931 233.629H162.772Z" fill="#CCCCCC"/>
<path d="M177.212 245.875H164.879C164.664 245.875 164.453 245.818 164.266 245.711C164.08 245.603 163.925 245.449 163.817 245.263C163.71 245.077 163.653 244.865 163.653 244.65C163.653 244.435 163.71 244.224 163.818 244.038L167.532 237.609C167.64 237.423 167.795 237.268 167.981 237.161C168.167 237.054 168.379 236.997 168.594 236.997C168.809 236.997 169.02 237.054 169.207 237.161C169.393 237.268 169.548 237.423 169.655 237.609L172.055 241.761L173.445 239.356C173.552 239.17 173.707 239.015 173.893 238.908C174.08 238.8 174.291 238.743 174.506 238.743C174.721 238.743 174.933 238.8 175.119 238.908C175.305 239.015 175.46 239.17 175.568 239.356L178.273 244.038C178.381 244.224 178.437 244.435 178.437 244.65C178.437 244.865 178.381 245.077 178.273 245.263C178.166 245.449 178.011 245.603 177.824 245.711C177.638 245.818 177.427 245.875 177.212 245.875ZM177.212 244.65L174.506 239.968L172.585 243.292C172.532 243.385 172.454 243.462 172.361 243.516C172.268 243.57 172.162 243.598 172.055 243.598C171.947 243.598 171.841 243.57 171.748 243.516C171.655 243.462 171.578 243.385 171.524 243.292L168.594 238.221L164.879 244.65H177.212Z" fill="#CCCCCC"/>
<path d="M178.093 237.303C178.77 237.303 179.318 236.755 179.318 236.078C179.318 235.402 178.77 234.854 178.093 234.854C177.416 234.854 176.867 235.402 176.867 236.078C176.867 236.755 177.416 237.303 178.093 237.303Z" fill="#CCCCCC"/>
<path d="M471.154 396.843L463.641 396.842L460.067 367.889L471.155 367.89L471.154 396.843Z" fill="#FFB8B8"/>
<path d="M473.07 404.119L448.845 404.118V403.812C448.845 402.575 449.089 401.35 449.562 400.207C450.036 399.064 450.731 398.025 451.606 397.151C452.482 396.276 453.521 395.582 454.666 395.108C455.81 394.635 457.036 394.391 458.274 394.391H458.275L473.07 394.392L473.07 404.119Z" fill="#094044"/>
<path d="M501.795 396.843L494.282 396.842L490.708 367.889L501.796 367.89L501.795 396.843Z" fill="#FFB8B8"/>
<path d="M503.711 404.119L479.486 404.118V403.812C479.486 402.575 479.73 401.35 480.204 400.207C480.677 399.064 481.372 398.025 482.248 397.151C483.123 396.276 484.163 395.582 485.307 395.108C486.451 394.635 487.677 394.391 488.915 394.391H488.916L503.712 394.392L503.711 404.119Z" fill="#094044"/>
<path d="M499.543 384.292L492.585 382.177C492.066 382.02 491.605 381.713 491.26 381.296C490.915 380.878 490.701 380.368 490.645 379.83L484.157 318.403C484.152 318.329 484.119 318.259 484.065 318.208C484.01 318.158 483.939 318.129 483.864 318.129C483.79 318.122 483.715 318.144 483.657 318.191C483.598 318.238 483.56 318.306 483.551 318.38L472.685 377.892C472.619 378.253 472.482 378.597 472.281 378.905C472.08 379.212 471.819 379.476 471.515 379.681C471.21 379.886 470.868 380.029 470.507 380.1C470.147 380.171 469.776 380.17 469.416 380.096L460.523 378.266C459.871 378.129 459.29 377.763 458.887 377.233C458.483 376.703 458.285 376.045 458.328 375.381L464.938 277.838L509.758 273.007L503.098 381.823C503.055 382.523 502.747 383.18 502.236 383.661C501.726 384.141 501.052 384.41 500.35 384.412C500.077 384.412 499.805 384.371 499.543 384.292Z" fill="#094044"/>
<path d="M499.5 192.894C507.813 192.894 514.552 186.162 514.552 177.856C514.552 169.551 507.813 162.818 499.5 162.818C491.188 162.818 484.449 169.551 484.449 177.856C484.449 186.162 491.188 192.894 499.5 192.894Z" fill="#FFB8B8"/>
<path d="M464.869 278.411L474.587 217.275C475.104 214.025 476.307 210.922 478.118 208.172C479.929 205.423 482.304 203.09 485.088 201.329C487.871 199.568 490.997 198.42 494.259 197.96C497.521 197.5 500.844 197.74 504.006 198.663C509.534 200.26 514.268 203.86 517.283 208.758C520.297 213.656 521.376 219.501 520.307 225.151L510.14 279.748L464.869 278.411Z" fill="#6C63FF"/>
<path d="M503.656 289.35C504.408 288.854 505.042 288.199 505.513 287.432C505.984 286.665 506.281 285.804 506.383 284.91C506.485 284.015 506.39 283.11 506.103 282.256C505.817 281.403 505.347 280.622 504.726 279.97L514.774 260.53L503.459 261.736L495.652 280.012C494.624 281.127 494.041 282.579 494.014 284.094C493.986 285.609 494.516 287.082 495.502 288.233C496.489 289.384 497.864 290.133 499.367 290.339C500.869 290.545 502.396 290.193 503.656 289.35Z" fill="#FFB8B8"/>
<path d="M505.807 276.541C505.252 276.463 504.733 276.217 504.32 275.836L500.476 272.287C500.061 271.902 499.774 271.399 499.654 270.845C499.535 270.292 499.588 269.715 499.807 269.193L507.49 250.997L506.4 215.045C506.557 213.889 506.94 212.776 507.528 211.768C508.115 210.76 508.896 209.878 509.825 209.172C510.754 208.466 511.814 207.95 512.943 207.653C514.071 207.356 515.248 207.284 516.404 207.442C517.561 207.6 518.675 207.983 519.683 208.572C520.691 209.16 521.573 209.94 522.279 210.869C522.985 211.798 523.501 212.857 523.797 213.985C524.093 215.113 524.164 216.289 524.005 217.444L525.868 240.044C526.435 246.904 524.489 253.735 520.391 259.268L508.409 275.451C508.179 275.762 507.885 276.022 507.548 276.212C507.211 276.402 506.837 276.519 506.451 276.556C506.237 276.576 506.021 276.571 505.807 276.541Z" fill="#6C63FF"/>
<path d="M412.823 169.663C412.987 170.548 413.343 171.387 413.867 172.119C414.39 172.852 415.068 173.461 415.852 173.904C416.637 174.346 417.509 174.611 418.407 174.681C419.305 174.75 420.208 174.622 421.051 174.305L435.051 191.129L438.351 180.248L424.55 165.94C423.924 164.56 422.812 163.457 421.427 162.841C420.041 162.225 418.477 162.138 417.031 162.597C415.586 163.056 414.359 164.029 413.583 165.331C412.808 166.634 412.537 168.175 412.823 169.663Z" fill="#FFB8B8"/>
<path d="M423.79 176.637C424.079 176.156 424.508 175.775 425.02 175.544L429.79 173.39C430.307 173.158 430.882 173.091 431.439 173.196C431.996 173.302 432.507 173.576 432.903 173.981L446.678 188.144L480.24 201.159C481.244 201.754 482.121 202.54 482.821 203.474C483.521 204.408 484.03 205.47 484.319 206.6C484.608 207.73 484.671 208.906 484.504 210.061C484.338 211.215 483.945 212.326 483.349 213.329C482.752 214.331 481.964 215.207 481.029 215.905C480.093 216.603 479.03 217.111 477.898 217.398C476.766 217.685 475.589 217.746 474.434 217.579C473.279 217.411 472.168 217.017 471.165 216.42L449.607 209.323C443.064 207.17 437.527 202.716 434.025 196.789L423.78 179.455C423.583 179.122 423.459 178.751 423.415 178.366C423.371 177.982 423.409 177.592 423.526 177.223C423.59 177.018 423.679 176.821 423.79 176.637Z" fill="#6C63FF"/>
<path opacity="0.1" d="M511.709 230L511.096 249.593L499.807 269.193L509.233 247.351L511.709 230Z" fill="black"/>
<path d="M497.776 180.683C496.83 180.805 495.873 180.581 495.08 180.052C494.288 179.522 493.715 178.723 493.467 177.804C493.229 176.745 492.706 175.771 491.956 174.986C491.205 174.202 490.255 173.636 489.208 173.35C486.447 172.72 483.072 174.018 481.049 171.928C480.616 171.451 480.302 170.878 480.134 170.256C479.967 169.634 479.949 168.981 480.083 168.351C480.456 166.32 481.91 164.786 483.493 163.559C486.823 160.988 490.853 159.483 495.054 159.242C497.229 159.179 499.405 159.287 501.563 159.565C503.822 159.708 506.057 160.116 508.221 160.781C510.685 161.71 512.876 163.245 514.59 165.244C516.304 167.243 517.486 169.642 518.027 172.218C518.521 174.802 518.445 177.463 517.804 180.015C517.163 182.567 515.972 184.948 514.315 186.992C512.331 189.461 509.772 191.407 506.863 192.661C506.169 192.988 505.375 193.028 504.653 192.773C502.84 192.053 503.136 189.81 503.963 188.314C504.847 186.713 506.208 185.163 505.497 183.215C505.14 182.312 504.456 181.576 503.58 181.154C501.778 180.236 499.763 180.453 497.826 180.677L497.776 180.683Z" fill="#094044"/>
<path d="M407.793 189.175H221.495C218.814 189.172 216.244 188.106 214.348 186.212C212.453 184.319 211.386 181.751 211.383 179.072V139.275C211.386 136.596 212.453 134.028 214.348 132.135C216.244 130.241 218.814 129.175 221.495 129.172H407.793C410.474 129.175 413.044 130.241 414.94 132.135C416.835 134.028 417.902 136.596 417.905 139.275V179.072C417.902 181.751 416.835 184.318 414.94 186.212C413.044 188.106 410.474 189.172 407.793 189.175Z" fill="white"/>
<path d="M407.793 189.481H221.495C218.733 189.478 216.085 188.38 214.131 186.429C212.178 184.478 211.08 181.832 211.077 179.072V139.275C211.08 136.515 212.178 133.87 214.131 131.918C216.085 129.967 218.733 128.869 221.495 128.866H407.793C410.555 128.869 413.203 129.967 415.156 131.918C417.109 133.87 418.208 136.515 418.211 139.275V179.072C418.208 181.832 417.109 184.478 415.156 186.429C413.203 188.38 410.555 189.478 407.793 189.481ZM221.495 130.091C219.058 130.094 216.721 131.062 214.998 132.784C213.274 134.505 212.305 136.84 212.302 139.275V179.072C212.305 181.507 213.274 183.842 214.998 185.563C216.721 187.285 219.058 188.254 221.495 188.256H407.793C410.23 188.254 412.567 187.285 414.29 185.563C416.013 183.842 416.983 181.507 416.985 179.072V139.275C416.983 136.84 416.013 134.505 414.29 132.784C412.567 131.062 410.23 130.094 407.793 130.091H221.495Z" fill="#3F3D56"/>
<path d="M385.119 179.378H244.169C241.488 179.375 238.918 178.31 237.023 176.416C235.127 174.522 234.061 171.954 234.058 169.276V148.459C234.061 145.78 235.127 143.213 237.023 141.319C238.918 139.425 241.488 138.359 244.169 138.356H385.119C387.799 138.359 390.37 139.425 392.265 141.319C394.161 143.213 395.227 145.78 395.23 148.459V169.276C395.227 171.954 394.161 174.522 392.265 176.416C390.37 178.31 387.799 179.375 385.119 179.378Z" fill="#F2F2F2"/>
<path d="M274.501 168.158C281.18 168.158 286.594 162.749 286.594 156.077C286.594 149.404 281.18 143.995 274.501 143.995C267.823 143.995 262.409 149.404 262.409 156.077C262.409 162.749 267.823 168.158 274.501 168.158Z" fill="#FF6584"/>
<path d="M376.359 178.159L359.291 163.857L342.517 149.801C342.074 149.43 341.514 149.228 340.937 149.229C340.359 149.23 339.8 149.435 339.359 149.807L322.639 163.927L318.555 167.377L312.397 162.217L293.684 146.536C293.241 146.165 292.681 145.962 292.104 145.963C291.526 145.964 290.967 146.169 290.526 146.542L271.873 162.295L252.926 178.295C252.83 178.376 252.762 178.485 252.729 178.606C252.697 178.728 252.703 178.856 252.747 178.974C252.79 179.092 252.868 179.194 252.972 179.265C253.075 179.337 253.197 179.376 253.323 179.375L292.168 179.301L304.464 179.277L304.343 179.378L340.995 179.308L375.967 179.241C376.092 179.24 376.215 179.202 376.318 179.129C376.421 179.057 376.499 178.955 376.542 178.837C376.585 178.719 376.59 178.591 376.558 178.469C376.525 178.348 376.456 178.24 376.359 178.159Z" fill="#3F3D56"/>
<path d="M536.387 405H418.725C418.563 405 418.407 404.935 418.292 404.821C418.177 404.706 418.112 404.55 418.112 404.388C418.112 404.225 418.177 404.07 418.292 403.955C418.407 403.84 418.563 403.775 418.725 403.775H536.387C536.55 403.775 536.706 403.84 536.821 403.955C536.936 404.07 537 404.225 537 404.388C537 404.55 536.936 404.706 536.821 404.821C536.706 404.935 536.55 405 536.387 405Z" fill="#CCCCCC"/>
<path d="M61.996 214.205C69.8386 214.205 76.1962 207.853 76.1962 200.018C76.1962 192.182 69.8386 185.831 61.996 185.831C54.1535 185.831 47.7959 192.182 47.7959 200.018C47.7959 207.853 54.1535 214.205 61.996 214.205Z" fill="#A0616A"/>
<path d="M96.8576 190.252C96.9975 190.363 97.1331 190.481 97.2645 190.606C97.9168 191.22 98.4319 191.965 98.7761 192.791C99.1203 193.618 99.2857 194.508 99.2616 195.403C99.2374 196.298 99.0243 197.178 98.6361 197.985C98.2478 198.792 97.6933 199.508 97.0089 200.086C96.8493 200.22 96.6828 200.345 96.5101 200.462L97.4712 232.878C97.4985 233.939 97.1827 234.981 96.5706 235.849C95.9585 236.716 95.0826 237.364 94.0731 237.695L94.0145 237.707L67.67 240.51C66.9538 240.587 66.2296 240.52 65.5392 240.315C64.8488 240.11 64.2059 239.77 63.6476 239.316C63.0894 238.861 62.6268 238.3 62.2866 237.666C61.9465 237.032 61.7354 236.336 61.6657 235.62C61.596 234.904 61.669 234.181 61.8805 233.493C62.092 232.805 62.4378 232.166 62.898 231.612C63.3581 231.058 63.9235 230.601 64.5614 230.267C65.1993 229.933 65.8972 229.729 66.6147 229.665L85.3942 228.013L88.6419 199.94C88.4295 199.752 88.2305 199.549 88.0465 199.334C87.0283 198.13 86.4942 196.59 86.548 195.015C86.6019 193.44 87.2398 191.94 88.338 190.809C89.4361 189.677 90.9161 188.993 92.4905 188.89C94.0648 188.787 95.6213 189.273 96.8576 190.252Z" fill="#A0616A"/>
<path d="M85.3835 397.47H92.4721L95.8438 370.155H85.3823L85.3835 397.47Z" fill="#A0616A"/>
<path d="M83.5757 395.158L97.5346 395.157C98.7028 395.157 99.8601 395.387 100.939 395.834C102.019 396.28 102.999 396.935 103.825 397.76C104.652 398.586 105.307 399.565 105.754 400.644C106.201 401.722 106.431 402.878 106.431 404.045V404.334L83.5761 404.335L83.5757 395.158Z" fill="#094044"/>
<path d="M14.9321 387.678L21.0224 391.301L37.9075 369.555L28.9186 364.208L14.9321 387.678Z" fill="#A0616A"/>
<path d="M14.5626 384.768L26.5566 391.903C27.5604 392.5 28.4371 393.289 29.1357 394.224C29.8343 395.16 30.3417 396.223 30.6288 397.355C30.916 398.486 30.9773 399.663 30.8092 400.818C30.6411 401.973 30.247 403.084 29.6493 404.086L29.5014 404.334L9.86377 392.653L14.5626 384.768Z" fill="#094044"/>
<path d="M94.1441 387.822H86.207C85.5643 387.823 84.9441 387.586 84.4662 387.157C83.9884 386.727 83.6869 386.136 83.62 385.497L75.6182 310.349C75.5981 310.16 75.5161 309.983 75.3851 309.845C75.2541 309.707 75.0812 309.615 74.8932 309.585C74.7052 309.555 74.5125 309.588 74.3448 309.678C74.1772 309.768 74.0438 309.911 73.9654 310.084L59.5301 342.019L33.9731 383.655C33.6424 384.189 33.1302 384.586 32.5305 384.773C31.9308 384.96 31.2836 384.926 30.7074 384.675L20.4977 380.187C20.1601 380.039 19.8579 379.82 19.6113 379.546C19.3646 379.272 19.1791 378.949 19.067 378.598C18.9549 378.247 18.9187 377.876 18.961 377.51C19.0032 377.144 19.1228 376.791 19.312 376.474L42.8058 337.171L50.0112 304.057C47.745 289.696 57.4601 268.345 57.5586 268.131L57.6067 268.027L84.3672 257.577L84.5014 257.741C95.055 292.342 101.486 329.58 96.7375 385.44C96.6789 386.089 96.3808 386.692 95.9014 387.132C95.4219 387.572 94.7954 387.818 94.1441 387.822Z" fill="#094044"/>
<path d="M56.5288 271.526L56.4041 271.264C56.3446 271.139 50.3942 258.6 45.8072 245.199C44.9256 242.607 44.5924 239.861 44.8285 237.134C45.0647 234.407 45.8651 231.759 47.179 229.357C48.5101 226.931 50.331 224.807 52.5266 223.12C54.7221 221.433 57.2443 220.22 59.9335 219.558C64.602 218.44 69.5171 219.035 73.7834 221.234C78.0496 223.434 81.3831 227.091 83.1765 231.54C86.815 240.631 85.6554 250.333 84.5641 257.964L84.5424 258.117L84.4032 258.183L56.5288 271.526Z" fill="#6C63FF"/>
<path d="M79.2132 192.004H56.665V182.184C61.6141 180.22 66.457 178.549 69.3845 182.184C71.9912 182.184 74.4912 183.219 76.3344 185.06C78.1776 186.902 79.2132 189.399 79.2132 192.004Z" fill="#094044"/>
<path d="M55.4167 180.451C41.937 180.451 38.1641 197.332 38.1641 206.855C38.1641 212.167 40.5682 214.066 44.3459 214.709L45.6801 207.6L48.8049 215.015C49.8661 215.02 50.9809 215 52.1367 214.978L53.1962 212.799L55.5587 214.939C65.0213 214.953 72.6692 216.331 72.6692 206.855C72.6692 197.332 69.3603 180.451 55.4167 180.451Z" fill="#094044"/>
<path d="M118.275 405H0.612824C0.450293 405 0.294418 404.935 0.179491 404.821C0.0645647 404.706 0 404.55 0 404.388C0 404.225 0.0645647 404.07 0.179491 403.955C0.294418 403.84 0.450293 403.775 0.612824 403.775H118.275C118.438 403.775 118.593 403.84 118.708 403.955C118.823 404.07 118.888 404.225 118.888 404.388C118.888 404.55 118.823 404.706 118.708 404.821C118.593 404.935 118.438 405 118.275 405Z" fill="#CCCCCC"/>
<path d="M120.487 203.563H94.1358C92.5923 203.561 91.1125 202.948 90.0211 201.858C88.9297 200.767 88.3157 199.289 88.314 197.747V171.419C88.3157 169.877 88.9297 168.398 90.0211 167.308C91.1125 166.218 92.5923 165.604 94.1358 165.602H120.487C122.031 165.604 123.51 166.218 124.602 167.308C125.693 168.398 126.307 169.877 126.309 171.419V197.747C126.307 199.289 125.693 200.767 124.602 201.858C123.51 202.948 122.031 203.561 120.487 203.563Z" fill="white"/>
<path d="M120.487 203.563H94.1358C92.5923 203.561 91.1125 202.948 90.0211 201.858C88.9297 200.767 88.3157 199.289 88.314 197.747V171.419C88.3157 169.877 88.9297 168.398 90.0211 167.308C91.1125 166.218 92.5923 165.604 94.1358 165.602H120.487C122.031 165.604 123.51 166.218 124.602 167.308C125.693 168.398 126.307 169.877 126.309 171.419V197.747C126.307 199.289 125.693 200.767 124.602 201.858C123.51 202.948 122.031 203.561 120.487 203.563ZM94.1358 166.827C92.9172 166.828 91.749 167.313 90.8873 168.173C90.0257 169.034 89.541 170.202 89.5396 171.419V197.747C89.541 198.964 90.0257 200.131 90.8873 200.992C91.749 201.853 92.9172 202.337 94.1358 202.339H120.487C121.706 202.337 122.874 201.853 123.736 200.992C124.597 200.131 125.082 198.964 125.083 197.747V171.419C125.082 170.202 124.597 169.034 123.736 168.173C122.874 167.313 121.706 166.828 120.487 166.827H94.1358Z" fill="#3F3D56"/>
<path d="M115.891 192.848H98.732C98.2446 192.848 97.7773 192.654 97.4326 192.31C97.088 191.965 96.8941 191.499 96.8936 191.012V178.154C96.8941 177.667 97.088 177.2 97.4326 176.856C97.7773 176.511 98.2446 176.318 98.732 176.317H103.563C103.877 176.316 104.186 176.396 104.46 176.549C104.734 176.702 104.965 176.923 105.128 177.191L106.476 179.378H115.891C116.379 179.379 116.846 179.573 117.19 179.917C117.535 180.261 117.729 180.728 117.73 181.215V191.012C117.729 191.499 117.535 191.965 117.19 192.31C116.846 192.654 116.379 192.848 115.891 192.848Z" fill="#6C63FF"/>
<path d="M115.333 199.344C115.419 199.501 115.498 199.662 115.571 199.828C115.934 200.647 116.119 201.533 116.115 202.428C116.111 203.324 115.918 204.208 115.548 205.024C115.178 205.839 114.64 206.567 113.969 207.161C113.298 207.754 112.509 208.199 111.653 208.466C111.454 208.528 111.252 208.579 111.048 208.619L99.3431 238.868C98.9562 239.857 98.2605 240.694 97.3593 241.257C96.4582 241.819 95.3995 242.076 94.3405 241.99L94.2817 241.979L68.9128 234.349C68.2231 234.141 67.5813 233.799 67.0246 233.343C66.4679 232.886 66.0072 232.324 65.6693 231.688C65.3313 231.053 65.1227 230.356 65.0555 229.64C64.9883 228.923 65.0639 228.201 65.2779 227.513C65.4918 226.826 65.8399 226.188 66.3021 225.636C66.7642 225.084 67.3313 224.629 67.9704 224.297C68.6096 223.965 69.3082 223.763 70.026 223.703C70.7438 223.642 71.4664 223.724 72.1523 223.944L90.1021 229.702L103.999 205.088C103.876 204.832 103.771 204.568 103.685 204.298C103.215 202.794 103.32 201.168 103.982 199.737C104.643 198.306 105.814 197.172 107.265 196.554C108.717 195.937 110.346 195.88 111.837 196.396C113.328 196.912 114.574 197.962 115.333 199.344Z" fill="#A0616A"/>
</g>
<defs>
<clipPath id="clip0_103_1276">
<rect width="537" height="405" fill="white"/>
</clipPath>
</defs>
</svg>
