<svg width="482" height="404" viewBox="0 0 482 404" fill="none" xmlns="http://www.w3.org/2000/svg">
<g clip-path="url(#clip0_103_1390)">
<path d="M424.85 24.5417H0.666186C0.488156 24.5378 0.318753 24.4642 0.19424 24.3368C0.0697279 24.2094 0 24.0382 0 23.86C0 23.6818 0.0697279 23.5106 0.19424 23.3832C0.318753 23.2558 0.488156 23.1823 0.666186 23.1783H424.85C425.028 23.1823 425.197 23.2558 425.322 23.3832C425.446 23.5106 425.516 23.6818 425.516 23.86C425.516 24.0382 425.446 24.2094 425.322 24.3368C425.197 24.4642 425.028 24.5378 424.85 24.5417Z" fill="#CACACA"/>
<path d="M15.6631 14.9977C19.7108 14.9977 22.9922 11.6404 22.9922 7.49886C22.9922 3.35735 19.7108 0 15.6631 0C11.6153 0 8.33398 3.35735 8.33398 7.49886C8.33398 11.6404 11.6153 14.9977 15.6631 14.9977Z" fill="#094044"/>
<path d="M40.9814 14.9977C45.0292 14.9977 48.3105 11.6404 48.3105 7.49886C48.3105 3.35735 45.0292 0 40.9814 0C36.9337 0 33.6523 3.35735 33.6523 7.49886C33.6523 11.6404 36.9337 14.9977 40.9814 14.9977Z" fill="#094044"/>
<path d="M66.3003 14.9977C70.348 14.9977 73.6294 11.6404 73.6294 7.49886C73.6294 3.35735 70.348 0 66.3003 0C62.2525 0 58.9712 3.35735 58.9712 7.49886C58.9712 11.6404 62.2525 14.9977 66.3003 14.9977Z" fill="#094044"/>
<path d="M409.678 1.85866H391.693C391.336 1.86574 390.997 2.01245 390.747 2.26729C390.498 2.52212 390.358 2.86476 390.358 3.22162C390.358 3.57849 390.498 3.92112 390.747 4.17595C390.997 4.43079 391.336 4.5775 391.693 4.58458H409.678C410.034 4.5775 410.374 4.43079 410.624 4.17595C410.873 3.92112 411.013 3.57849 411.013 3.22162C411.013 2.86476 410.873 2.52212 410.624 2.26729C410.374 2.01245 410.034 1.86574 409.678 1.85866Z" fill="#094044"/>
<path d="M409.678 6.97481H391.693C391.336 6.98189 390.997 7.1286 390.747 7.38344C390.498 7.63827 390.358 7.98092 390.358 8.33778C390.358 8.69465 390.498 9.03728 390.747 9.29211C390.997 9.54695 391.336 9.69366 391.693 9.70074H409.678C410.034 9.69366 410.374 9.54695 410.624 9.29211C410.873 9.03728 411.013 8.69465 411.013 8.33778C411.013 7.98092 410.873 7.63827 410.624 7.38344C410.374 7.1286 410.034 6.98189 409.678 6.97481Z" fill="#094044"/>
<path d="M409.678 12.0842H391.693C391.336 12.0913 390.997 12.238 390.747 12.4929C390.498 12.7477 390.358 13.0903 390.358 13.4472C390.358 13.8041 390.498 14.1467 390.747 14.4015C390.997 14.6564 391.336 14.8031 391.693 14.8102H409.678C410.034 14.8031 410.374 14.6564 410.624 14.4015C410.873 14.1467 411.013 13.8041 411.013 13.4472C411.013 13.0903 410.873 12.7477 410.624 12.4929C410.374 12.238 410.034 12.0913 409.678 12.0842Z" fill="#094044"/>
<path d="M402.962 47.56H16.6019C14.4625 47.5632 12.4117 48.4152 10.8989 49.9293C9.38619 51.4433 8.53493 53.4959 8.53174 55.6371V56.9396C8.53493 59.0808 9.38619 61.1334 10.8989 62.6474C12.4117 64.1615 14.4625 65.0135 16.6019 65.0167H402.962C405.101 65.0135 407.152 64.1615 408.665 62.6474C410.177 61.1334 411.029 59.0808 411.032 56.9396V55.6371C411.029 53.4959 410.177 51.4433 408.665 49.9293C407.152 48.4152 405.101 47.5632 402.962 47.56Z" fill="#F0F0F0"/>
<path d="M63.2282 59.5113H26.4511C25.6283 59.51 24.8395 59.182 24.2581 58.5993C23.6767 58.0165 23.3501 57.2266 23.3501 56.403C23.3501 55.5794 23.6767 54.7895 24.2581 54.2067C24.8395 53.6239 25.6283 53.2959 26.4511 53.2947H63.2282C67.2332 53.2388 67.2733 59.5677 63.2282 59.5113Z" fill="white"/>
<path d="M173.245 59.5113H136.468C135.645 59.51 134.857 59.182 134.275 58.5993C133.694 58.0165 133.367 57.2266 133.367 56.403C133.367 55.5794 133.694 54.7895 134.275 54.2067C134.857 53.6239 135.645 53.2959 136.468 53.2947H173.245C177.25 53.2388 177.29 59.5677 173.245 59.5113Z" fill="white"/>
<path d="M283.262 59.5113H246.485C245.662 59.51 244.873 59.182 244.292 58.5993C243.71 58.0165 243.384 57.2266 243.384 56.403C243.384 55.5794 243.71 54.7895 244.292 54.2067C244.873 53.6239 245.662 53.2959 246.485 53.2947H283.262C287.267 53.2388 287.307 59.5677 283.262 59.5113Z" fill="white"/>
<path d="M387.577 59.847H350.799C349.976 59.847 349.186 59.5195 348.603 58.9366C348.021 58.3537 347.694 57.5631 347.694 56.7387C347.694 55.9143 348.021 55.1237 348.603 54.5408C349.186 53.9579 349.976 53.6304 350.799 53.6304H387.577C391.582 53.5745 391.622 59.9034 387.577 59.847Z" fill="#6C63FF"/>
<path d="M330.197 47.56H328.855V65.0167H330.197V47.56Z" fill="white"/>
<path d="M191.364 305.927H33.6827C32.2777 305.926 30.9307 305.366 29.9372 304.372C28.9438 303.378 28.3849 302.029 28.3833 300.623V277.51C28.3849 276.104 28.9438 274.755 29.9372 273.761C30.9307 272.767 32.2777 272.207 33.6827 272.206H191.364C192.769 272.207 194.116 272.767 195.11 273.761C196.103 274.755 196.662 276.104 196.664 277.51V300.623C196.662 302.029 196.103 303.378 195.11 304.372C194.116 305.366 192.769 305.926 191.364 305.927Z" fill="#F0F0F0"/>
<path d="M176.043 302.35H37.2578C35.8529 302.348 34.5059 301.789 33.5124 300.794C32.519 299.8 31.9601 298.452 31.9585 297.046V281.09C31.9601 279.684 32.519 278.336 33.5124 277.341C34.5059 276.347 35.8529 275.788 37.2578 275.786H187.79C189.195 275.788 190.541 276.347 191.535 277.341C192.528 278.336 193.087 279.684 193.089 281.09V285.289C193.084 289.812 191.286 294.149 188.091 297.347C184.895 300.545 180.563 302.345 176.043 302.35Z" fill="white"/>
<path d="M128.17 287.422H64.7944C64.432 287.422 64.0843 287.278 63.828 287.022C63.5717 286.765 63.4277 286.417 63.4277 286.054C63.4277 285.692 63.5717 285.344 63.828 285.087C64.0843 284.831 64.432 284.687 64.7944 284.687H128.17C128.533 284.687 128.88 284.831 129.137 285.087C129.393 285.344 129.537 285.692 129.537 286.054C129.537 286.417 129.393 286.765 129.137 287.022C128.88 287.278 128.533 287.422 128.17 287.422Z" fill="#E6E6E6"/>
<path d="M160.253 293.017H64.7945C64.6148 293.017 64.4368 292.982 64.2706 292.914C64.1044 292.845 63.9534 292.744 63.8262 292.617C63.6989 292.49 63.598 292.339 63.5291 292.173C63.4603 292.007 63.4248 291.829 63.4248 291.649C63.4248 291.469 63.4603 291.291 63.5291 291.125C63.598 290.959 63.6989 290.808 63.8262 290.681C63.9534 290.554 64.1044 290.453 64.2706 290.384C64.4368 290.316 64.6148 290.281 64.7945 290.281H160.253C160.614 290.282 160.961 290.426 161.217 290.683C161.473 290.939 161.616 291.287 161.616 291.649C161.616 292.011 161.473 292.359 161.217 292.615C160.961 292.872 160.614 293.016 160.253 293.017Z" fill="#E6E6E6"/>
<path d="M201.437 245.761H21.6465C20.2119 245.759 18.8365 245.188 17.8221 244.172C16.8076 243.157 16.237 241.781 16.2354 240.345V102.794C16.237 101.359 16.8076 99.982 17.8221 98.9667C18.8365 97.9514 20.2119 97.3804 21.6465 97.3788H201.437C202.871 97.3804 204.247 97.9514 205.261 98.9667C206.276 99.982 206.846 101.359 206.848 102.794V240.345C206.846 241.781 206.276 243.157 205.261 244.172C204.247 245.188 202.871 245.759 201.437 245.761Z" fill="white"/>
<path d="M201.436 246.432H21.6465C20.034 246.43 18.4881 245.788 17.3479 244.647C16.2077 243.506 15.5663 241.958 15.5645 240.345V102.794C15.5663 101.18 16.2077 99.6332 17.348 98.4921C18.4882 97.351 20.0341 96.7091 21.6465 96.7073H201.436C203.049 96.7091 204.595 97.351 205.735 98.4921C206.875 99.6332 207.517 101.18 207.519 102.794V240.345C207.517 241.958 206.875 243.506 205.735 244.647C204.595 245.788 203.049 246.43 201.436 246.432ZM21.6465 98.0502C20.3898 98.0516 19.1849 98.5518 18.2962 99.4412C17.4075 100.331 16.9076 101.536 16.9061 102.794V240.345C16.9075 241.602 17.4074 242.808 18.2961 243.698C19.1848 244.587 20.3897 245.088 21.6465 245.089H201.436C202.693 245.088 203.898 244.587 204.787 243.698C205.676 242.808 206.175 241.602 206.177 240.345V102.794C206.175 101.536 205.675 100.331 204.787 99.4412C203.898 98.5518 202.693 98.0515 201.436 98.0502L21.6465 98.0502Z" fill="#F0F0F0"/>
<path d="M16.6504 219.576V240.345C16.6524 241.67 17.1793 242.941 18.1158 243.878C19.0523 244.815 20.3218 245.343 21.6462 245.345H201.437C202.761 245.343 204.031 244.815 204.967 243.878C205.904 242.941 206.43 241.67 206.432 240.345V219.576H16.6504Z" fill="#F0F0F0"/>
<path d="M18.3449 98.255L17.6216 99.3857L206.071 220.141L206.794 219.01L18.3449 98.255Z" fill="#F0F0F0"/>
<path d="M206.603 98.2551L18.1533 219.01L18.8766 220.141L207.326 99.3858L206.603 98.2551Z" fill="#F0F0F0"/>
<path d="M365.849 394.647L357.537 394.646L353.583 362.56L365.85 362.561L365.849 394.647Z" fill="#A0616A"/>
<path d="M365.627 391.928L356.759 388.323L356.497 388.216L351.6 391.928C348.913 391.928 346.329 392.966 344.388 394.827C342.447 396.687 341.298 399.225 341.182 401.912C341.168 402.06 341.168 402.214 341.168 402.369V402.711H367.968V391.928H365.627Z" fill="#2F2E41"/>
<path d="M346.384 386.906L338.543 389.667L324.172 360.712L335.744 356.638L346.384 386.906Z" fill="#A0616A"/>
<path d="M345.273 384.415L335.712 383.96L335.43 383.945L332.041 389.074C329.506 389.967 327.413 391.804 326.199 394.204C324.985 396.604 324.743 399.38 325.525 401.953C325.561 402.097 325.612 402.243 325.664 402.388L325.777 402.711L351.058 393.809L347.482 383.637L345.273 384.415Z" fill="#2F2E41"/>
<path d="M368.786 256.297C376.39 256.002 366.97 316.65 366.97 316.65C366.97 316.65 369.725 369.897 369.141 372.691C368.557 375.485 369.068 383.022 369.068 383.022C367.578 380.308 352.208 382.356 352.208 382.356L350.117 328.391L339.442 285.152L324.642 314.136L338.827 358.624C338.827 358.624 344.572 363.944 343.961 366.047C343.35 368.149 328.303 372.89 325.538 372.998C322.773 373.105 324.021 369.592 323.887 366.133C323.753 362.673 310.742 330.612 306.165 319.703C301.589 308.794 305.147 293.412 307.483 282.235C309.819 271.058 322.109 250.082 322.109 250.082C337.365 232.861 361.182 256.593 368.786 256.297Z" fill="#2F2E41"/>
<path d="M276.118 207.286C276.535 208.082 277.121 208.777 277.835 209.323C278.549 209.868 279.374 210.25 280.251 210.442C281.129 210.634 282.038 210.63 282.914 210.433C283.79 210.235 284.612 209.847 285.323 209.297L303.608 221.237L303.553 209.882L286.197 200.284C285.194 199.151 283.811 198.425 282.309 198.245C280.808 198.064 279.293 198.441 278.05 199.304C276.808 200.168 275.925 201.457 275.569 202.928C275.213 204.399 275.409 205.949 276.118 207.286Z" fill="#A0616A"/>
<path d="M364.837 266.02C345.979 266.021 335.588 262.242 330.069 258.869C323.322 254.744 322.167 250.394 322.121 250.211L322.108 250.158L322.765 241.886L323.052 241.243C324.376 238.277 324.551 234.926 323.545 231.838L323.524 231.775L323.529 231.708L327.938 174.474L343.542 169.359L348.081 164.794L368.292 164.5L371.108 170.214L387.041 176.218L379.213 222.852L375.46 229.325L376.97 236.377L376.96 236.44L372.037 265.848L371.766 265.86C369.338 265.969 367.029 266.022 364.837 266.02Z" fill="#094044"/>
<path d="M316.052 230.313L308.654 225.923L308.19 225.253C307.249 223.897 306.002 222.781 304.551 221.994C303.1 221.207 301.485 220.772 299.836 220.723L299.75 220.72L289.561 214.725L293.784 202.341L309.757 207.064L320.892 179.372C321.504 177.851 322.525 176.53 323.842 175.555C325.159 174.581 326.72 173.991 328.352 173.851C329.984 173.711 331.623 174.028 333.086 174.765C334.55 175.501 335.78 176.63 336.64 178.025C337.522 179.483 337.979 181.159 337.96 182.863V200.982L337.893 201.072L316.052 230.313Z" fill="#094044"/>
<path d="M365.51 255.369C365.669 254.485 366.019 253.645 366.536 252.91C367.054 252.175 367.726 251.563 368.505 251.116C369.284 250.67 370.152 250.399 371.047 250.324C371.942 250.25 372.843 250.372 373.686 250.684L387.542 233.796L390.898 244.644L377.225 259.017C376.609 260.399 375.507 261.507 374.129 262.131C372.751 262.755 371.193 262.851 369.749 262.401C368.305 261.951 367.076 260.987 366.295 259.691C365.514 258.395 365.235 256.858 365.51 255.369Z" fill="#A0616A"/>
<path d="M386.228 253.236L377.027 244.025L382.884 229.741L391.373 218.141C382.328 213.733 375.538 203.292 370.618 194.649L370.562 194.552L371.788 184.948C372.074 182.702 372.973 180.578 374.386 178.81C375.615 177.272 377.193 176.05 378.99 175.248C380.787 174.446 382.75 174.086 384.714 174.198C386.678 174.31 388.587 174.892 390.281 175.894C391.975 176.896 393.404 178.289 394.45 179.957L410.947 216.662L410.761 216.939L397.492 239.579L393.87 241.929L386.228 253.236Z" fill="#094044"/>
<path d="M372.697 145.248C372.091 149.674 369.753 153.677 366.199 156.379C362.645 159.081 358.164 160.261 353.741 159.658C349.319 159.056 345.316 156.721 342.613 153.167C339.909 149.612 338.726 145.129 339.323 140.702L339.355 140.463C340.053 136.095 342.438 132.176 345.997 129.553C349.555 126.929 354.001 125.811 358.376 126.439C362.751 127.067 366.704 129.391 369.382 132.909C372.06 136.428 373.249 140.859 372.692 145.247L372.697 145.248Z" fill="#A0616A"/>
<path d="M368.411 153.93C369.276 152.172 370.164 150.284 369.921 148.339C369.678 146.395 367.772 144.536 365.901 145.114C364.782 145.459 363.937 146.565 362.767 146.622C361.158 146.7 360.235 144.856 359.735 143.324L357.695 137.082C355.736 138.61 353.464 139.686 351.041 140.234C348.619 140.782 346.105 140.788 343.68 140.251C341.786 139.818 339.872 138.973 338.761 137.378C337.65 135.782 337.657 133.308 339.181 132.101C339.928 131.51 340.923 131.285 341.637 130.654C342.08 130.262 342.385 129.739 342.507 129.16C342.63 128.581 342.563 127.978 342.316 127.441C342.07 126.903 341.657 126.459 341.139 126.175C340.621 125.89 340.025 125.78 339.439 125.861L344.576 125.219L343.045 122.448C343.627 122.845 344.285 123.115 344.977 123.242C345.669 123.369 346.381 123.35 347.065 123.186C348.447 122.937 349.748 122.368 351.1 121.988C354.377 121.15 357.838 121.406 360.956 122.717C364.074 124.028 366.68 126.321 368.377 129.249C369.641 128.827 371.004 128.799 372.284 129.169C373.564 129.539 374.702 130.289 375.546 131.321C376.921 133.068 377.295 135.399 377.349 137.622C377.449 142.005 376.494 146.348 374.564 150.285C374.011 151.535 373.216 152.663 372.226 153.605C371.727 154.072 371.132 154.424 370.483 154.637C369.834 154.849 369.146 154.917 368.468 154.835" fill="#2F2E41"/>
<path d="M95.5088 136.587C95.7836 140.513 96.9391 144.326 98.8894 147.743C103 154.968 110.049 160.199 117.641 163.309C127.125 167.193 137.698 167.313 147.764 166.447C157.114 165.642 166.368 163.777 175.751 163.393C183.008 163.161 190.272 163.334 197.51 163.913C211.551 164.91 225.535 166.761 239.428 169.005C243.191 169.605 246.945 170.25 250.692 170.939C251.046 170.97 251.397 171.036 251.738 171.134C251.806 171.162 251.916 171.14 251.978 171.179C252.091 171.25 251.521 170.998 251.866 171.284C252.348 171.79 252.778 172.344 253.149 172.937L258.28 179.545C259.752 181.441 261.117 183.743 263.019 185.237C264.36 186.274 265.978 186.89 267.668 187.008C269.358 187.126 271.046 186.74 272.518 185.9C274.055 184.928 275.281 183.534 276.05 181.884C277.23 179.718 278.638 177.683 280.25 175.816C286.354 168.689 294.839 164.305 301.935 158.308C305.372 155.522 308.305 152.165 310.607 148.385C312.571 144.965 313.792 141.168 314.19 137.243C315.04 129.273 312.597 121.145 308.486 114.364C304.016 107.079 297.593 101.196 289.949 97.3816C281.361 93.0025 271.857 90.8695 262.332 89.8065C252.218 88.678 241.986 88.6815 231.823 88.7954C220.417 88.9225 209.032 89.4245 197.668 90.3015C186.288 91.1831 174.953 92.4362 163.662 94.0608C152.829 95.6197 141.863 97.2445 131.259 100.003C121.89 102.44 112.549 106.249 105.553 113.15C99.3332 119.286 95.0071 127.683 95.5088 136.587Z" fill="#6C63FF"/>
<path d="M147.874 139.123C147.411 139.102 146.957 138.985 146.542 138.78C146.126 138.575 145.757 138.286 145.458 137.932C145.159 137.577 144.937 137.164 144.805 136.719C144.673 136.274 144.635 135.807 144.693 135.347L144.934 133.45C144.98 133.086 144.937 132.717 144.808 132.373C144.68 132.03 144.47 131.722 144.197 131.478L142.774 130.205C142.308 129.788 141.967 129.249 141.791 128.649C141.615 128.049 141.611 127.411 141.778 126.808C141.945 126.206 142.277 125.662 142.737 125.238C143.197 124.815 143.766 124.528 144.38 124.412L146.257 124.055C146.617 123.987 146.954 123.832 147.241 123.604C147.528 123.376 147.755 123.082 147.903 122.746L148.673 120.996C148.925 120.423 149.332 119.933 149.848 119.58C150.364 119.228 150.968 119.026 151.593 118.999C152.217 118.972 152.837 119.12 153.381 119.427C153.926 119.734 154.374 120.187 154.674 120.735L155.593 122.411C155.769 122.733 156.02 123.007 156.326 123.21C156.632 123.412 156.982 123.538 157.346 123.574L159.246 123.767C159.868 123.83 160.46 124.065 160.955 124.447C161.45 124.83 161.828 125.343 162.047 125.929C162.265 126.515 162.316 127.15 162.193 127.763C162.069 128.377 161.777 128.943 161.349 129.399L160.04 130.791C159.789 131.058 159.607 131.382 159.509 131.735C159.411 132.088 159.4 132.46 159.478 132.818L159.881 134.687C160.013 135.298 159.972 135.935 159.762 136.524C159.552 137.112 159.181 137.631 158.692 138.02C158.203 138.409 157.615 138.654 156.994 138.726C156.373 138.798 155.745 138.695 155.18 138.428L153.452 137.613C153.121 137.456 152.757 137.383 152.39 137.398C152.024 137.414 151.667 137.519 151.351 137.704L149.7 138.666C149.148 138.989 148.514 139.148 147.874 139.123Z" fill="white"/>
<path d="M174.772 138.341C173.919 138.302 173.114 137.942 172.515 137.333C172.154 136.95 171.884 136.489 171.727 135.986C171.57 135.483 171.529 134.951 171.607 134.43L171.828 132.69C171.875 132.32 171.831 131.943 171.701 131.593C171.57 131.243 171.356 130.93 171.078 130.682L169.758 129.501C169.368 129.168 169.058 128.753 168.849 128.285C168.64 127.817 168.538 127.308 168.551 126.796C168.58 126.037 168.865 125.31 169.361 124.735C169.856 124.16 170.532 123.77 171.278 123.63L173.132 123.277C173.499 123.208 173.843 123.05 174.136 122.817C174.428 122.585 174.659 122.284 174.809 121.942L175.501 120.371C175.748 119.775 176.154 119.259 176.676 118.879C177.197 118.499 177.814 118.271 178.456 118.219C179.086 118.183 179.714 118.327 180.265 118.634C180.817 118.941 181.27 119.399 181.572 119.953L182.479 121.61C182.659 121.938 182.915 122.217 183.227 122.423C183.538 122.63 183.895 122.757 184.267 122.795L186.028 122.973C186.538 123.013 187.034 123.167 187.478 123.422C187.922 123.678 188.303 124.03 188.594 124.453C189.015 125.083 189.211 125.839 189.147 126.596C189.084 127.352 188.766 128.065 188.246 128.617L186.953 129.993C186.697 130.265 186.511 130.595 186.412 130.954C186.312 131.314 186.301 131.693 186.38 132.057L186.752 133.783C186.872 134.282 186.879 134.8 186.774 135.302C186.669 135.803 186.454 136.275 186.145 136.683C185.677 137.283 185.019 137.705 184.28 137.88C183.54 138.055 182.763 137.973 182.077 137.646L180.367 136.84C180.03 136.681 179.659 136.606 179.287 136.623C178.914 136.639 178.551 136.745 178.229 136.933L176.597 137.884C176.045 138.208 175.411 138.366 174.772 138.341Z" fill="white"/>
<path d="M201.739 138.227C201.276 138.206 200.822 138.089 200.406 137.884C199.99 137.679 199.621 137.39 199.322 137.036C199.023 136.681 198.801 136.268 198.669 135.823C198.538 135.378 198.499 134.911 198.557 134.451L198.798 132.554C198.844 132.19 198.801 131.821 198.672 131.477C198.544 131.134 198.335 130.826 198.061 130.582L196.638 129.309C196.172 128.892 195.832 128.353 195.656 127.753C195.48 127.153 195.475 126.515 195.642 125.913C195.809 125.31 196.142 124.766 196.602 124.342C197.061 123.919 197.631 123.632 198.245 123.516L200.121 123.159C200.481 123.091 200.819 122.936 201.105 122.708C201.392 122.48 201.619 122.186 201.767 121.85L202.537 120.1C202.789 119.528 203.196 119.037 203.712 118.684C204.228 118.332 204.833 118.13 205.457 118.103C206.081 118.076 206.701 118.224 207.245 118.531C207.79 118.838 208.238 119.291 208.539 119.839L209.457 121.515C209.633 121.837 209.885 122.111 210.19 122.314C210.496 122.516 210.846 122.642 211.211 122.679L213.11 122.871C213.732 122.934 214.324 123.169 214.819 123.551C215.314 123.934 215.692 124.447 215.911 125.033C216.13 125.619 216.18 126.254 216.057 126.867C215.933 127.481 215.641 128.047 215.213 128.503L213.904 129.895C213.653 130.162 213.471 130.486 213.373 130.839C213.275 131.192 213.264 131.564 213.342 131.922L213.746 133.791C213.878 134.403 213.836 135.039 213.626 135.628C213.416 136.216 213.045 136.735 212.556 137.124C212.067 137.513 211.479 137.758 210.858 137.83C210.238 137.902 209.609 137.799 209.044 137.532L207.316 136.717C206.985 136.56 206.621 136.487 206.255 136.502C205.888 136.518 205.532 136.623 205.215 136.808L203.565 137.77C203.012 138.094 202.378 138.252 201.739 138.227Z" fill="white"/>
<path d="M227.939 138.312C227.476 138.291 227.022 138.174 226.606 137.969C226.19 137.764 225.821 137.475 225.522 137.121C225.223 136.766 225.001 136.353 224.869 135.908C224.738 135.463 224.7 134.996 224.757 134.536L224.998 132.639C225.044 132.275 225.001 131.906 224.873 131.562C224.744 131.219 224.535 130.912 224.262 130.667L222.838 129.394C222.372 128.977 222.032 128.438 221.856 127.838C221.68 127.238 221.675 126.6 221.842 125.998C222.009 125.395 222.342 124.851 222.802 124.427C223.262 124.004 223.831 123.718 224.445 123.601L226.321 123.244C226.681 123.176 227.019 123.021 227.306 122.793C227.592 122.565 227.819 122.271 227.967 121.935L228.737 120.185C228.989 119.613 229.396 119.122 229.912 118.769C230.428 118.417 231.033 118.215 231.657 118.188C232.282 118.161 232.901 118.309 233.446 118.616C233.99 118.923 234.438 119.376 234.739 119.924L235.657 121.6C235.833 121.922 236.085 122.196 236.39 122.399C236.696 122.601 237.046 122.727 237.411 122.764L239.311 122.956C239.932 123.019 240.524 123.254 241.019 123.637C241.514 124.019 241.892 124.532 242.111 125.118C242.33 125.704 242.38 126.339 242.257 126.952C242.134 127.566 241.841 128.132 241.413 128.588L240.105 129.98C239.853 130.247 239.671 130.571 239.573 130.924C239.475 131.277 239.464 131.649 239.542 132.007L239.946 133.876C240.078 134.488 240.037 135.124 239.826 135.713C239.616 136.302 239.246 136.82 238.756 137.209C238.267 137.598 237.679 137.843 237.058 137.915C236.438 137.987 235.809 137.884 235.244 137.617L233.517 136.803C233.185 136.645 232.821 136.572 232.455 136.587C232.089 136.603 231.732 136.708 231.415 136.893L229.765 137.855C229.212 138.179 228.579 138.337 227.939 138.312Z" fill="white"/>
<path d="M254.449 139.518C253.985 139.497 253.532 139.38 253.116 139.175C252.7 138.97 252.331 138.681 252.032 138.327C251.733 137.972 251.511 137.559 251.379 137.114C251.248 136.669 251.209 136.202 251.267 135.742L251.508 133.845C251.554 133.481 251.511 133.112 251.382 132.768C251.254 132.425 251.044 132.118 250.771 131.873L249.348 130.6C248.882 130.183 248.542 129.644 248.366 129.044C248.19 128.444 248.185 127.806 248.352 127.204C248.519 126.601 248.852 126.057 249.311 125.633C249.771 125.21 250.341 124.924 250.955 124.807L252.831 124.45C253.191 124.382 253.529 124.227 253.815 123.999C254.102 123.771 254.329 123.477 254.477 123.141L255.247 121.391C255.499 120.819 255.906 120.328 256.422 119.975C256.938 119.623 257.543 119.421 258.167 119.394C258.791 119.367 259.411 119.515 259.955 119.822C260.5 120.129 260.948 120.582 261.249 121.13L262.167 122.806C262.343 123.128 262.595 123.402 262.9 123.605C263.206 123.807 263.556 123.933 263.921 123.97L265.82 124.162C266.442 124.225 267.034 124.46 267.529 124.843C268.024 125.225 268.402 125.738 268.621 126.324C268.84 126.91 268.89 127.545 268.767 128.158C268.643 128.772 268.351 129.338 267.923 129.794L266.614 131.186C266.363 131.453 266.181 131.777 266.083 132.13C265.985 132.483 265.974 132.855 266.052 133.213L266.456 135.082C266.588 135.694 266.546 136.33 266.336 136.919C266.126 137.508 265.755 138.026 265.266 138.415C264.777 138.804 264.189 139.049 263.568 139.121C262.948 139.193 262.319 139.09 261.754 138.823L260.026 138.009C259.695 137.851 259.331 137.778 258.965 137.793C258.598 137.809 258.242 137.914 257.925 138.099L256.274 139.061C255.722 139.385 255.088 139.543 254.449 139.518Z" fill="white"/>
<path d="M421.311 360.796L422.079 343.527C430.078 339.248 439 336.987 448.07 336.942C435.587 347.157 437.147 366.847 428.684 380.584C426.011 384.848 422.414 388.455 418.159 391.139C413.905 393.822 409.101 395.513 404.105 396.086L393.658 402.487C392.225 394.49 392.541 386.276 394.585 378.412C396.628 370.548 400.351 363.221 405.496 356.935C408.418 353.438 411.768 350.323 415.467 347.663C417.969 354.266 421.311 360.796 421.311 360.796Z" fill="#F2F2F2"/>
<path d="M481.201 404H201.207C200.996 404 200.792 403.916 200.643 403.766C200.493 403.616 200.409 403.413 200.409 403.201C200.409 402.989 200.493 402.785 200.643 402.635C200.792 402.485 200.996 402.401 201.207 402.401H481.201C481.413 402.401 481.616 402.485 481.766 402.635C481.916 402.785 482 402.989 482 403.201C482 403.413 481.916 403.616 481.766 403.766C481.616 403.916 481.413 404 481.201 404Z" fill="#CACACA"/>
</g>
<defs>
<clipPath id="clip0_103_1390">
<rect width="482" height="404" fill="white"/>
</clipPath>
</defs>
</svg>
