<svg width="121" height="24" viewBox="0 0 121 24" fill="none" xmlns="http://www.w3.org/2000/svg">
<g clip-path="url(#clip0_98_562)">
<path d="M12.4998 17.5196L16.6498 20.0296C17.4098 20.4896 18.3398 19.8096 18.1398 18.9496L17.0398 14.2296L20.7098 11.0496C21.3798 10.4696 21.0198 9.3696 20.1398 9.2996L15.3098 8.8896L13.4198 4.4296C13.0798 3.6196 11.9198 3.6196 11.5798 4.4296L9.68983 8.8796L4.85983 9.2896C3.97983 9.3596 3.61983 10.4596 4.28983 11.0396L7.95983 14.2196L6.85983 18.9396C6.65983 19.7996 7.58983 20.4796 8.34983 20.0196L12.4998 17.5196Z" fill="#D84F2A"/>
<path d="M84.4998 17.5196L88.6498 20.0296C89.4098 20.4896 90.3398 19.8096 90.1398 18.9496L89.0398 14.2296L92.7098 11.0496C93.3798 10.4696 93.0198 9.3696 92.1398 9.2996L87.3098 8.8896L85.4198 4.4296C85.0798 3.6196 83.9198 3.6196 83.5798 4.4296L81.6898 8.8796L76.8598 9.2896C75.9798 9.3596 75.6198 10.4596 76.2898 11.0396L79.9598 14.2196L78.8598 18.9396C78.6598 19.7996 79.5898 20.4796 80.3498 20.0196L84.4998 17.5196Z" fill="#D84F2A"/>
<path d="M60.4998 17.5196L64.6498 20.0296C65.4098 20.4896 66.3398 19.8096 66.1398 18.9496L65.0398 14.2296L68.7098 11.0496C69.3798 10.4696 69.0198 9.3696 68.1398 9.2996L63.3098 8.8896L61.4198 4.4296C61.0798 3.6196 59.9198 3.6196 59.5798 4.4296L57.6898 8.8796L52.8598 9.2896C51.9798 9.3596 51.6198 10.4596 52.2898 11.0396L55.9598 14.2196L54.8598 18.9396C54.6598 19.7996 55.5898 20.4796 56.3498 20.0196L60.4998 17.5196Z" fill="#D84F2A"/>
<path d="M36.4998 17.5196L40.6498 20.0296C41.4098 20.4896 42.3398 19.8096 42.1398 18.9496L41.0398 14.2296L44.7098 11.0496C45.3798 10.4696 45.0198 9.3696 44.1398 9.2996L39.3098 8.8896L37.4198 4.4296C37.0798 3.6196 35.9198 3.6196 35.5798 4.4296L33.6898 8.8796L28.8598 9.2896C27.9798 9.3596 27.6198 10.4596 28.2898 11.0396L31.9598 14.2196L30.8598 18.9396C30.6598 19.7996 31.5898 20.4796 32.3498 20.0196L36.4998 17.5196Z" fill="#D84F2A"/>
<path d="M108.5 17.5196L112.65 20.0296C113.41 20.4896 114.34 19.8096 114.14 18.9496L113.04 14.2296L116.71 11.0496C117.38 10.4696 117.02 9.3696 116.14 9.2996L111.31 8.8896L109.42 4.4296C109.08 3.6196 107.92 3.6196 107.58 4.4296L105.69 8.8796L100.86 9.2896C99.9798 9.3596 99.6198 10.4596 100.29 11.0396L103.96 14.2196L102.86 18.9396C102.66 19.7996 103.59 20.4796 104.35 20.0196L108.5 17.5196Z" fill="#D84F2A"/>
</g>
<defs>
<clipPath id="clip0_98_562">
<rect width="120" height="24" fill="white" transform="translate(0.5)"/>
</clipPath>
</defs>
</svg>
